<svg xmlns:xlink="http://www.w3.org/1999/xlink" width="64" xmlns="http://www.w3.org/2000/svg" height="64" id="screenshot-ea368cf4-7640-80b9-8001-e69845a9dc93" viewBox="-0 -0 64 64" style="-webkit-print-color-adjust: exact;" fill="none" version="1.1"><g xmlns:xlink="http://www.w3.org/1999/xlink" width="512" xml:space="preserve" height="512" class="" x="0" id="shape-ea368cf4-7640-80b9-8001-e69845a9dc93" style="fill: rgb(0, 0, 0);" ry="0" rx="0" y="0" version="1.1"><g id="shape-ea368cf4-7640-80b9-8001-e69845a9dcbd" rx="0" ry="0" style="fill: rgb(0, 0, 0);"><g id="shape-ea368cf4-7640-80b9-8001-e69845a9dcbe"><g id="fills-ea368cf4-7640-80b9-8001-e69845a9dcbe"><path clip-rule="evenodd" fill-rule="evenodd" class="" rx="0" ry="0" d="M3.48,39.891L8.405,37.023C9.087,36.624,9.866,36.545,10.572,36.735C11.277,36.925,11.913,37.387,12.306,38.075L13.019,39.32L24.732,32.388C25.212,32.102,25.716,31.926,26.239,31.857C26.762,31.788,27.293,31.827,27.83,31.978L36.313,34.346C37.343,34.634,38.171,35.304,38.683,36.164C39.195,37.023,39.39,38.072,39.158,39.123L39.11,39.342C38.984,39.908,38.763,40.409,38.451,40.844C38.303,41.051,38.135,41.241,37.947,41.417L41.031,42.314C41.308,42.394,41.584,42.419,41.854,42.386C42.118,42.354,42.375,42.264,42.625,42.119L42.624,42.118L53.815,35.6C54.774,35.042,55.868,34.929,56.859,35.197C57.851,35.465,58.742,36.115,59.295,37.08C59.305,37.098,59.315,37.117,59.324,37.135L59.582,37.584L59.583,37.583C59.615,37.632,59.641,37.682,59.664,37.732C60.173,38.676,60.271,39.74,60.014,40.707C59.754,41.689,59.129,42.574,58.201,43.133L58.201,43.134C58.164,43.159,58.126,43.182,58.087,43.201L55.537,44.686C56.874,44.876,58.036,45.108,58.969,45.369C60.869,45.902,61.978,46.694,62,47.708L62,47.738L62,51.942L62,56.145L62,60.348C62,61.638,60.003,62.636,56.775,63.205C53.995,63.695,50.17,64,45.957,64C41.745,64,37.919,63.697,35.139,63.205C31.91,62.636,29.915,61.637,29.915,60.348L29.915,56.145L29.915,54.18L24.175,53.218C23.921,53.175,23.685,53.174,23.463,53.215C23.246,53.255,23.028,53.341,22.804,53.472L21.546,54.214L22.316,55.56C22.345,55.604,22.37,55.65,22.392,55.697C22.748,56.366,22.816,57.12,22.633,57.804C22.453,58.48,22.029,59.091,21.4,59.493C21.35,59.53,21.298,59.562,21.244,59.589L16.321,62.456C16.298,62.469,16.276,62.482,16.253,62.492C15.587,62.858,14.836,62.927,14.155,62.743C13.449,62.552,12.814,62.09,12.42,61.403C12.41,61.385,12.4,61.366,12.391,61.348L2.415,43.915L2.413,43.916C2.385,43.874,2.36,43.829,2.34,43.784C1.983,43.115,1.916,42.361,2.097,41.676C2.281,40.983,2.72,40.358,3.373,39.959L3.373,39.957C3.403,39.932,3.441,39.91,3.48,39.891ZZM9.388,38.736C7.727,39.704,6.069,40.679,4.403,41.639C4.191,41.762,4.049,41.963,3.989,42.187C3.93,42.412,3.954,42.657,4.074,42.869L4.073,42.871L14.082,60.36C14.094,60.376,14.104,60.393,14.114,60.411C14.236,60.625,14.435,60.768,14.657,60.828C14.869,60.886,15.098,60.868,15.301,60.763L15.334,60.743L20.319,57.84L20.32,57.841L20.322,57.84C20.531,57.718,20.673,57.517,20.732,57.292C20.792,57.068,20.768,56.822,20.647,56.611C17.301,50.764,13.954,44.917,10.609,39.069C10.487,38.855,10.288,38.712,10.065,38.652C9.841,38.59,9.599,38.613,9.388,38.736ZZM52.671,46.35L47.452,49.389C50.955,49.328,54.092,49.053,56.434,48.639C58.655,48.246,60.031,47.915,60.031,47.736C60.031,47.724,59.45,47.555,58.444,47.274C57.054,46.883,55.058,46.563,52.671,46.35ZZM44.063,51.363L40.518,53.428C40.816,53.448,41.117,53.467,41.423,53.485C42.823,53.565,44.345,53.607,45.953,53.607C50.058,53.607,53.763,53.315,56.434,52.844C58.655,52.451,60.031,52.12,60.031,51.94L60.031,49.703C59.179,50.064,58.077,50.363,56.773,50.594C53.993,51.084,50.167,51.389,45.955,51.389C45.794,51.389,45.428,51.385,44.867,51.378C44.59,51.372,44.323,51.368,44.063,51.363ZZM37.281,55.112C37.222,55.126,37.161,55.139,37.1,55.149C36.652,55.231,36.196,55.232,35.727,55.153L35.694,55.147L31.876,54.507L31.876,56.141C31.876,56.32,33.25,56.653,35.473,57.045C38.144,57.516,41.849,57.808,45.953,57.808C50.058,57.808,53.763,57.516,56.434,57.045C58.655,56.652,60.031,56.32,60.031,56.141L60.031,53.904C59.179,54.265,58.077,54.564,56.773,54.795C53.993,55.285,50.167,55.589,45.955,55.589C44.366,55.589,42.807,55.545,41.316,55.46C39.848,55.378,38.492,55.259,37.281,55.112ZZM25.721,34.094L13.997,41.034L20.556,52.495L21.807,51.759C22.219,51.515,22.649,51.353,23.104,51.268C23.553,51.185,24.011,51.184,24.484,51.263L30.983,52.354C31.032,52.359,31.079,52.367,31.126,52.378L36.015,53.199L36.048,53.204C36.299,53.246,36.534,53.247,36.752,53.207C36.794,53.2,36.837,53.191,36.879,53.179C36.92,53.164,36.961,53.151,37.005,53.142C37.138,53.097,37.271,53.035,37.407,52.957C39.231,51.894,41.131,50.82,43.057,49.738C43.209,49.554,43.425,49.429,43.668,49.393C46.307,47.908,48.986,46.405,51.577,44.881C51.747,44.552,52.092,44.336,52.479,44.348C54.089,43.39,55.66,42.425,57.16,41.452C57.647,41.168,57.975,40.709,58.111,40.197C58.242,39.705,58.196,39.169,57.947,38.693L57.941,38.684L57.942,38.683C57.838,38.494,57.729,38.309,57.623,38.122C57.611,38.105,57.601,38.089,57.591,38.071C57.309,37.579,56.854,37.248,56.346,37.111C55.837,36.974,55.28,37.03,54.793,37.313L43.602,43.831L43.601,43.829L43.599,43.831C43.11,44.115,42.601,44.29,42.079,44.354C41.562,44.418,41.029,44.371,40.486,44.213L27.905,40.551L28.443,38.652L34.619,40.45C34.906,40.533,35.185,40.558,35.453,40.523C35.714,40.49,35.976,40.395,36.236,40.239C36.491,40.087,36.698,39.9,36.855,39.682C37.015,39.461,37.126,39.205,37.191,38.917L37.239,38.698C37.359,38.159,37.258,37.62,36.996,37.18C36.734,36.742,36.312,36.4,35.787,36.253L27.303,33.885C27.02,33.806,26.749,33.784,26.489,33.819C26.23,33.852,25.972,33.944,25.721,34.094ZZM33.894,19.606C33.853,19.061,34.259,18.585,34.801,18.544C35.341,18.503,35.813,18.913,35.854,19.459C35.896,20.008,36.143,20.498,36.519,20.848C36.89,21.195,37.392,21.406,37.945,21.406C38.523,21.406,39.049,21.169,39.428,20.786C39.807,20.404,40.042,19.875,40.042,19.29C40.042,17.706,38.88,17.427,37.719,17.147C35.801,16.687,33.882,16.226,33.882,13.075C33.882,11.943,34.338,10.918,35.072,10.176C35.581,9.662,36.226,9.283,36.946,9.1L36.946,7.9C36.946,7.352,37.387,6.908,37.93,6.908L37.963,6.908L37.963,6.912L37.978,6.912C38.518,6.921,38.951,7.37,38.942,7.915L38.921,9.094C39.651,9.276,40.305,9.656,40.82,10.177C41.556,10.919,42.01,11.943,42.01,13.076C42.01,13.624,41.57,14.068,41.027,14.068C40.484,14.068,40.043,13.624,40.043,13.076C40.043,12.492,39.809,11.962,39.429,11.58C39.05,11.197,38.526,10.96,37.946,10.96C37.368,10.96,36.842,11.197,36.463,11.58C36.083,11.962,35.849,12.491,35.849,13.076C35.849,14.661,37.011,14.94,38.172,15.219C40.09,15.679,42.009,16.14,42.009,19.291C42.009,20.423,41.553,21.448,40.819,22.19C40.306,22.708,39.658,23.088,38.931,23.269L38.912,24.279L38.912,24.466C38.912,25.014,38.471,25.458,37.928,25.458C37.385,25.458,36.945,25.014,36.945,24.466L36.945,23.264C36.28,23.093,35.68,22.755,35.189,22.298C34.457,21.616,33.975,20.667,33.894,19.606ZZM37.945,3.641C34.511,3.641,31.403,5.046,29.153,7.315C26.904,9.584,25.512,12.72,25.512,16.184C25.512,19.647,26.904,22.783,29.153,25.052C31.403,27.322,34.511,28.726,37.945,28.726C41.378,28.726,44.487,27.322,46.736,25.052C48.986,22.783,50.378,19.647,50.378,16.184C50.378,12.72,48.986,9.584,46.736,7.315C44.485,5.046,41.378,3.641,37.945,3.641ZZM45.344,8.719C43.45,6.808,40.834,5.627,37.944,5.627C35.053,5.627,32.437,6.808,30.543,8.719C28.648,10.63,27.477,13.269,27.477,16.185C27.477,19.101,28.648,21.74,30.543,23.651C32.437,25.562,35.053,26.743,37.944,26.743C40.834,26.743,43.45,25.562,45.344,23.651C47.239,21.74,48.41,19.101,48.41,16.185C48.41,13.269,47.239,10.629,45.344,8.719ZZM37.945,0C33.514,0,29.503,1.811,26.6,4.741C23.697,7.669,21.901,11.715,21.901,16.185C21.901,20.655,23.696,24.7,26.6,27.629C29.503,30.557,33.514,32.37,37.945,32.37C42.375,32.37,46.386,30.559,49.289,27.629C52.192,24.7,53.989,20.655,53.989,16.185C53.989,11.715,52.193,7.669,49.289,4.741C46.385,1.811,42.374,0,37.945,0ZZM47.899,6.144C45.351,3.574,41.832,1.985,37.945,1.985C34.057,1.985,30.539,3.575,27.991,6.144C25.443,8.714,23.869,12.263,23.869,16.185C23.869,20.107,25.445,23.656,27.991,26.226C30.539,28.796,34.057,30.385,37.945,30.385C41.832,30.385,45.351,28.795,47.899,26.226C50.446,23.656,52.021,20.107,52.021,16.185C52.021,12.263,50.445,8.713,47.899,6.144ZZM60.03,58.108C59.178,58.469,58.076,58.769,56.771,58.999C53.991,59.489,50.166,59.794,45.953,59.794C41.741,59.794,37.916,59.491,35.136,58.999C33.831,58.769,32.729,58.469,31.877,58.108L31.877,60.346C31.877,60.525,33.252,60.858,35.474,61.249C38.145,61.72,41.85,62.012,45.955,62.012C50.059,62.012,53.764,61.72,56.435,61.249C58.657,60.856,60.032,60.525,60.032,60.346L60.03,58.108ZZ" style="fill: rgb(58, 114, 197); fill-opacity: 1;"/></g></g></g></g></svg>