<svg xmlns:xlink="http://www.w3.org/1999/xlink" width="63" xmlns="http://www.w3.org/2000/svg" height="66.5" id="screenshot-ea368cf4-7640-80b9-8001-e69845a9dc92" viewBox="-0 -0 63 66.5" style="-webkit-print-color-adjust: exact;" fill="none" version="1.1"><g xmlns:xlink="http://www.w3.org/1999/xlink" width="512" xml:space="preserve" height="512" class="" x="0" id="shape-ea368cf4-7640-80b9-8001-e69845a9dc92" style="fill: rgb(0, 0, 0);" ry="0" rx="0" y="0" version="1.1"><g id="shape-ea368cf4-7640-80b9-8001-e69845a9dcb4" rx="0" ry="0" style="fill: rgb(0, 0, 0);"><g id="shape-ea368cf4-7640-80b9-8001-e69845a9dcb5" rx="0" ry="0" style="fill: rgb(0, 0, 0);"><g id="shape-ea368cf4-7640-80b9-8001-e69845a9dcb6"><g id="fills-ea368cf4-7640-80b9-8001-e69845a9dcb6"><path class="" rx="0" ry="0" d="M51.313,24.527C50.219,24.527,49.212,24.91,48.414,25.548C48.101,23.235,46.139,21.446,43.771,21.446C42.515,21.446,41.373,21.949,40.531,22.767C39.809,21.083,38.153,19.903,36.229,19.903C35.155,19.903,34.165,20.272,33.374,20.89L33.374,11.749C33.374,9.13,31.272,7,28.687,7C26.103,7,24,9.13,24,11.749L24,27.105C24,27.617,24.41,28.033,24.916,28.033C25.422,28.033,25.832,27.617,25.832,27.105L25.832,11.749C25.832,10.154,27.113,8.856,28.687,8.856C30.261,8.856,31.542,10.154,31.542,11.749L31.542,32.566C31.542,33.079,31.952,33.494,32.458,33.494C32.964,33.494,33.374,33.079,33.374,32.566L33.374,24.652C33.374,23.057,34.655,21.76,36.229,21.76C37.803,21.76,39.084,23.057,39.084,24.652L39.084,32.566C39.084,33.079,39.494,33.494,40,33.494C40.506,33.494,40.916,33.079,40.916,32.566L40.916,26.195C40.916,24.6,42.197,23.303,43.771,23.303C45.345,23.303,46.626,24.6,46.626,26.195L46.626,32.566C46.626,33.079,47.036,33.494,47.542,33.494C48.048,33.494,48.458,33.079,48.458,32.566L48.458,29.275C48.458,27.68,49.739,26.383,51.313,26.383C52.887,26.383,54.168,27.68,54.168,29.275L54.168,42.951L54.163,46.894C54.119,50.136,53.506,53.307,52.339,56.318L52.047,57.072C51.852,57.576,51.753,58.106,51.753,58.648L51.753,65.072C51.753,65.584,52.164,66,52.67,66C53.175,66,53.586,65.584,53.586,65.072L53.586,58.648C53.586,58.339,53.642,58.038,53.753,57.751L54.045,56.996C55.292,53.776,55.948,50.386,55.996,46.908L56,42.952L56,29.275C56,26.657,53.897,24.527,51.313,24.527ZZ" style="fill: rgb(58, 114, 197); fill-opacity: 1;"/></g><g id="strokes-ea368cf4-7640-80b9-8001-e69845a9dcb6"><g class="stroke-shape"><path class="" rx="0" ry="0" d="M51.313,24.527C50.219,24.527,49.212,24.91,48.414,25.548C48.101,23.235,46.139,21.446,43.771,21.446C42.515,21.446,41.373,21.949,40.531,22.767C39.809,21.083,38.153,19.903,36.229,19.903C35.155,19.903,34.165,20.272,33.374,20.89L33.374,11.749C33.374,9.13,31.272,7,28.687,7C26.103,7,24,9.13,24,11.749L24,27.105C24,27.617,24.41,28.033,24.916,28.033C25.422,28.033,25.832,27.617,25.832,27.105L25.832,11.749C25.832,10.154,27.113,8.856,28.687,8.856C30.261,8.856,31.542,10.154,31.542,11.749L31.542,32.566C31.542,33.079,31.952,33.494,32.458,33.494C32.964,33.494,33.374,33.079,33.374,32.566L33.374,24.652C33.374,23.057,34.655,21.76,36.229,21.76C37.803,21.76,39.084,23.057,39.084,24.652L39.084,32.566C39.084,33.079,39.494,33.494,40,33.494C40.506,33.494,40.916,33.079,40.916,32.566L40.916,26.195C40.916,24.6,42.197,23.303,43.771,23.303C45.345,23.303,46.626,24.6,46.626,26.195L46.626,32.566C46.626,33.079,47.036,33.494,47.542,33.494C48.048,33.494,48.458,33.079,48.458,32.566L48.458,29.275C48.458,27.68,49.739,26.383,51.313,26.383C52.887,26.383,54.168,27.68,54.168,29.275L54.168,42.951L54.163,46.894C54.119,50.136,53.506,53.307,52.339,56.318L52.047,57.072C51.852,57.576,51.753,58.106,51.753,58.648L51.753,65.072C51.753,65.584,52.164,66,52.67,66C53.175,66,53.586,65.584,53.586,65.072L53.586,58.648C53.586,58.339,53.642,58.038,53.753,57.751L54.045,56.996C55.292,53.776,55.948,50.386,55.996,46.908L56,42.952L56,29.275C56,26.657,53.897,24.527,51.313,24.527ZZ" style="fill: none; stroke-width: 1; stroke: rgb(58, 114, 197); stroke-opacity: 1;"/></g></g></g><g id="shape-ea368cf4-7640-80b9-8001-e69845a9dcb7"><g id="fills-ea368cf4-7640-80b9-8001-e69845a9dcb7"><path class="" rx="0" ry="0" d="M28.851,56.487C26.228,55.91,23.948,54.37,22.431,52.151L12.412,37.485C11.499,36.149,11.749,34.361,12.993,33.326C14.27,32.264,16.151,32.391,17.275,33.615L23.165,40.028C23.583,40.482,24.224,40.631,24.798,40.407C25.373,40.182,25.744,39.638,25.744,39.021L25.744,30.932C25.744,30.417,25.328,30,24.814,30C24.3,30,23.883,30.417,23.883,30.932L23.883,38.057L18.645,32.353C16.849,30.399,13.845,30.196,11.804,31.893C9.816,33.546,9.417,36.402,10.876,38.537L20.895,53.202C22.619,55.726,25.182,57.504,28.139,58.233L28.139,65.068C28.139,65.583,28.556,66,29.069,66C29.583,66,30,65.583,30,65.068L30,57.917C30,57.234,29.517,56.633,28.851,56.487ZL28.851,56.487Z" style="fill: rgb(58, 114, 197); fill-opacity: 1;"/></g><g id="strokes-ea368cf4-7640-80b9-8001-e69845a9dcb7"><g class="stroke-shape"><path class="" rx="0" ry="0" d="M28.851,56.487C26.228,55.91,23.948,54.37,22.431,52.151L12.412,37.485C11.499,36.149,11.749,34.361,12.993,33.326C14.27,32.264,16.151,32.391,17.275,33.615L23.165,40.028C23.583,40.482,24.224,40.631,24.798,40.407C25.373,40.182,25.744,39.638,25.744,39.021L25.744,30.932C25.744,30.417,25.328,30,24.814,30C24.3,30,23.883,30.417,23.883,30.932L23.883,38.057L18.645,32.353C16.849,30.399,13.845,30.196,11.804,31.893C9.816,33.546,9.417,36.402,10.876,38.537L20.895,53.202C22.619,55.726,25.182,57.504,28.139,58.233L28.139,65.068C28.139,65.583,28.556,66,29.069,66C29.583,66,30,65.583,30,65.068L30,57.917C30,57.234,29.517,56.633,28.851,56.487ZL28.851,56.487Z" style="fill: none; stroke-width: 1; stroke: rgb(58, 114, 197); stroke-opacity: 1;"/></g></g></g><g id="shape-ea368cf4-7640-80b9-8001-e69845a9dcb8"><g id="fills-ea368cf4-7640-80b9-8001-e69845a9dcb8"><path class="" rx="0" ry="0" d="M37.018,11.244C37.018,12.745,36.681,14.18,36.014,15.51C35.763,16.011,35.954,16.627,36.44,16.886C36.586,16.963,36.741,17,36.894,17C37.253,17,37.599,16.798,37.775,16.447C38.588,14.825,39,13.074,39,11.244C39,8.755,38.233,6.39,36.782,4.407C36.453,3.956,35.831,3.866,35.394,4.206C34.957,4.545,34.87,5.186,35.2,5.636C36.39,7.263,37.018,9.202,37.018,11.244ZZ" style="fill: rgb(58, 114, 197); fill-opacity: 1;"/></g></g><g id="shape-ea368cf4-7640-80b9-8001-e69845a9dcb9"><g id="fills-ea368cf4-7640-80b9-8001-e69845a9dcb9"><path class="" rx="0" ry="0" d="M20.001,17C20.147,17,20.294,16.964,20.433,16.887C20.894,16.63,21.076,16.018,20.837,15.521C20.204,14.201,19.883,12.776,19.883,11.285C19.883,6.181,23.739,2.028,28.48,2.028C29.922,2.028,31.348,2.42,32.606,3.163C33.061,3.432,33.634,3.252,33.884,2.761C34.134,2.27,33.967,1.654,33.511,1.385C31.977,0.479,30.237,0,28.48,0C22.701,0,18,5.063,18,11.285C18,13.103,18.392,14.84,19.164,16.451C19.331,16.8,19.66,17,20.001,17ZL20.001,17Z" style="fill: rgb(58, 114, 197); fill-opacity: 1;"/></g></g><g id="shape-ea368cf4-7640-80b9-8001-e69845a9dcba"><g id="fills-ea368cf4-7640-80b9-8001-e69845a9dcba"><path class="" rx="0" ry="0" d="M12.157,20C12.279,20,12.402,19.969,12.519,19.902C12.939,19.663,13.118,19.061,12.918,18.558C12.101,16.501,11.686,14.294,11.686,12C11.686,9.706,12.101,7.499,12.918,5.442C13.118,4.939,12.939,4.337,12.519,4.098C12.098,3.859,11.595,4.073,11.395,4.576C10.469,6.906,10,9.404,10,12C10,14.596,10.469,17.094,11.395,19.424C11.539,19.787,11.842,20,12.157,20ZZ" style="fill: rgb(58, 114, 197); fill-opacity: 1;"/></g></g><g id="shape-ea368cf4-7640-80b9-8001-e69845a9dcbb"><g id="fills-ea368cf4-7640-80b9-8001-e69845a9dcbb"><path class="" rx="0" ry="0" d="M43.482,19.902C43.598,19.969,43.722,20,43.843,20C44.158,20,44.461,19.787,44.605,19.424C45.531,17.094,46,14.596,46,12C46,9.404,45.531,6.906,44.605,4.576C44.405,4.073,43.902,3.859,43.482,4.098C43.061,4.337,42.882,4.939,43.082,5.442C43.899,7.499,44.314,9.706,44.314,12C44.314,14.294,43.899,16.5,43.082,18.558C42.882,19.061,43.061,19.663,43.482,19.902ZZ" style="fill: rgb(58, 114, 197); fill-opacity: 1;"/></g></g></g></g></g></svg>