<svg xmlns="http://www.w3.org/2000/svg" version="1.1" xmlns:xlink="http://www.w3.org/1999/xlink" xmlns:svgjs="http://svgjs.com/svgjs" width="512" height="512" x="0" y="0" viewBox="0 0 64 64" style="enable-background:new 0 0 512 512" xml:space="preserve" class=""><g><path d="M41.563 53.096H22.427a2.921 2.921 0 0 0-2.915 2.915v3.004a.988.988 0 0 0 .985.985h22.996a.981.981 0 0 0 .985-.985v-3.004a2.915 2.915 0 0 0-2.915-2.915zM25.973 51.126h12.054c-1.46-6.356-10.595-6.359-12.054 0zM29.095 19.994c5.222 3.795 10.787-3.832 5.554-7.662-5.13-3.247-10.234 3.84-5.554 7.662z" fill="#FFFFFF" data-original="#FFFFFF"></path><path d="M32 44.34a8.281 8.281 0 0 1 2.915.542V22.29a6.626 6.626 0 0 1-5.82 0v22.583A8.424 8.424 0 0 1 32 44.34zM28.888 10.333a6.587 6.587 0 0 1 4.53-.62 6.15 6.15 0 0 1 1.872.718 1.067 1.067 0 0 0 .078-.187c.837-2.295-2.029-5.368-2.61-5.958A.965.965 0 0 0 32.05 4a.939.939 0 0 0-.699.305c-.57.588-3.435 3.768-2.462 6.028zM25.46 42.272v-1.674a.988.988 0 0 0-.984-.985h-1.123L16.242 20.27a3.087 3.087 0 0 0 1.487-4.067l4.52-2.837a4.942 4.942 0 0 1 3.95-.443 6.214 6.214 0 0 1 1.3-1.615 7 7 0 0 0-6.254.374l-4.914 3.063a2.982 2.982 0 0 0-1.389-.335 3.084 3.084 0 0 0-1.3 5.86L6.541 39.613H5.408a.988.988 0 0 0-.985.985v1.674a4.043 4.043 0 0 0 4.038 4.038h12.961a4.043 4.043 0 0 0 4.038-4.038zM8.64 39.613l6.303-17.176 6.303 17.176zM58.592 39.613h-1.123l-7.11-19.343a3.075 3.075 0 0 0-1.3-5.86 2.982 2.982 0 0 0-1.39.335l-4.954-3.093a7.054 7.054 0 0 0-6.224-.354 6.695 6.695 0 0 1 1.31 1.615 4.88 4.88 0 0 1 3.91.433l4.56 2.857a3.087 3.087 0 0 0 1.487 4.067l-7.101 19.343h-1.133a.988.988 0 0 0-.984.985v1.674a4.043 4.043 0 0 0 4.038 4.038h12.96a4.043 4.043 0 0 0 4.039-4.038v-1.674a.988.988 0 0 0-.985-.985zm-15.837 0 6.303-17.176 6.303 17.176z" fill="#FFFFFF" data-original="#FFFFFF"></path></g></svg>
