<svg xmlns="http://www.w3.org/2000/svg" version="1.1" xmlns:xlink="http://www.w3.org/1999/xlink" xmlns:svgjs="http://svgjs.com/svgjs" width="512" height="512" x="0" y="0" viewBox="0 0 512 512" style="enable-background:new 0 0 512 512" xml:space="preserve" class=""><g><path d="M477.858 17.067H34.142C15.317 17.067 0 32.384 0 51.208v264.525a8.536 8.536 0 0 0 8.533 8.533h494.933a8.536 8.536 0 0 0 8.533-8.533V51.208c.001-18.824-15.316-34.141-34.141-34.141zM494.933 307.2H17.067V51.208c0-9.421 7.663-17.075 17.075-17.075h443.716c9.412 0 17.075 7.654 17.075 17.075V307.2z" fill="#FFFFFF" data-original="#FFFFFF" class=""></path><path d="M503.467 307.2H8.533A8.536 8.536 0 0 0 0 315.733v42.658c0 18.825 15.317 34.142 34.142 34.142h443.716c18.825 0 34.142-15.317 34.142-34.142v-42.658a8.536 8.536 0 0 0-8.533-8.533zm-8.534 51.191c0 9.421-7.663 17.075-17.075 17.075H34.142c-9.412 0-17.075-7.654-17.075-17.075v-34.125h477.867v34.125z" fill="#FFFFFF" data-original="#FFFFFF" class=""></path><path d="M281.6 341.333h-51.2a8.536 8.536 0 0 0-8.533 8.533 8.536 8.536 0 0 0 8.533 8.533h51.2a8.536 8.536 0 0 0 8.533-8.533 8.536 8.536 0 0 0-8.533-8.533zM469.333 51.2H42.667a8.536 8.536 0 0 0-8.533 8.533v256a8.536 8.536 0 0 0 8.533 8.533h426.667a8.536 8.536 0 0 0 8.533-8.533v-256c0-4.71-3.823-8.533-8.534-8.533zm-8.533 256H51.2V68.267h409.6V307.2zM366.933 443.733H145.067c-14.114 0-25.6 11.486-25.6 25.6s11.486 25.6 25.6 25.6h221.867c14.114 0 25.6-11.486 25.6-25.6-.001-14.114-11.487-25.6-25.601-25.6zm0 34.134H145.067c-4.71 0-8.533-3.831-8.533-8.533s3.823-8.533 8.533-8.533h221.867c4.71 0 8.533 3.831 8.533 8.533 0 4.701-3.823 8.533-8.534 8.533z" fill="#FFFFFF" data-original="#FFFFFF" class=""></path><path d="M349.867 443.733c-28.314 0-42.667-20.096-42.667-59.733a8.536 8.536 0 0 0-8.533-8.533h-85.333a8.536 8.536 0 0 0-8.533 8.533c0 39.637-14.353 59.733-42.667 59.733-4.71 0-8.533 3.823-8.533 8.533s3.823 8.533 8.533 8.533h187.733c4.71 0 8.533-3.823 8.533-8.533s-3.823-8.533-8.533-8.533zm-146.168 0c10.505-11.639 16.691-28.971 17.937-51.2h68.736c1.237 22.229 7.424 39.561 17.937 51.2h-104.61zM256 85.333c-37.641 0-68.267 30.626-68.267 68.267 0 37.641 30.626 68.267 68.267 68.267 37.641 0 68.267-30.626 68.267-68.267 0-37.641-30.626-68.267-68.267-68.267zm0 119.467c-28.228 0-51.2-22.963-51.2-51.2s22.972-51.2 51.2-51.2 51.2 22.963 51.2 51.2-22.972 51.2-51.2 51.2z" fill="#FFFFFF" data-original="#FFFFFF" class=""></path><path d="M301.884 187.469a8.506 8.506 0 0 0-9.318 1.929C282.846 199.33 269.858 204.8 256 204.8s-26.846-5.47-36.574-15.403a8.526 8.526 0 0 0-9.318-1.929 8.545 8.545 0 0 0-5.308 7.902v86.23a8.536 8.536 0 0 0 4.326 7.424 8.508 8.508 0 0 0 8.593-.111L256 265.95l38.281 22.963a8.43 8.43 0 0 0 4.386 1.22 8.534 8.534 0 0 0 8.533-8.533v-86.229a8.52 8.52 0 0 0-5.316-7.902zm-11.751 79.061-29.747-17.843c-1.348-.819-2.867-1.22-4.386-1.22s-3.038.401-4.386 1.22l-29.747 17.843v-53.794c20.523 11.913 47.744 11.913 68.267 0v53.794z" fill="#FFFFFF" data-original="#FFFFFF" class=""></path><path d="M256 119.467c-18.825 0-34.133 15.309-34.133 34.133s15.309 34.133 34.133 34.133a8.536 8.536 0 0 0 8.533-8.533 8.536 8.536 0 0 0-8.533-8.533c-9.412 0-17.067-7.654-17.067-17.067 0-9.412 7.654-17.067 17.067-17.067 9.412 0 17.067 7.654 17.067 17.067 0 4.71 3.823 8.533 8.533 8.533s8.533-3.823 8.533-8.533c0-18.825-15.308-34.133-34.133-34.133zM256 230.4a8.536 8.536 0 0 0-8.533 8.533V256c0 4.71 3.823 8.533 8.533 8.533s8.533-3.823 8.533-8.533v-17.067A8.536 8.536 0 0 0 256 230.4zM426.667 85.333h-34.133c-4.71 0-8.533 3.823-8.533 8.533s3.823 8.533 8.533 8.533h34.133c4.71 0 8.533-3.823 8.533-8.533s-3.823-8.533-8.533-8.533zM358.4 85.333h-17.067c-4.71 0-8.533 3.823-8.533 8.533s3.823 8.533 8.533 8.533H358.4c4.71 0 8.533-3.823 8.533-8.533s-3.823-8.533-8.533-8.533zM375.467 119.467h-34.133c-4.71 0-8.533 3.823-8.533 8.533s3.823 8.533 8.533 8.533h34.133c4.71 0 8.533-3.823 8.533-8.533s-3.823-8.533-8.533-8.533zM426.667 119.467H409.6c-4.71 0-8.533 3.823-8.533 8.533s3.823 8.533 8.533 8.533h17.067c4.71 0 8.533-3.823 8.533-8.533s-3.823-8.533-8.533-8.533zM170.667 238.933h-34.133c-4.71 0-8.533 3.823-8.533 8.533s3.823 8.533 8.533 8.533h34.133c4.71 0 8.533-3.823 8.533-8.533s-3.823-8.533-8.533-8.533zM102.4 238.933H85.333c-4.71 0-8.533 3.823-8.533 8.533S80.623 256 85.333 256H102.4c4.71 0 8.533-3.823 8.533-8.533s-3.823-8.534-8.533-8.534zM119.467 273.067H85.333A8.536 8.536 0 0 0 76.8 281.6a8.536 8.536 0 0 0 8.533 8.533h34.133a8.536 8.536 0 0 0 8.533-8.533c.001-4.71-3.822-8.533-8.532-8.533zM170.667 273.067H153.6a8.536 8.536 0 0 0-8.533 8.533 8.536 8.536 0 0 0 8.533 8.533h17.067a8.536 8.536 0 0 0 8.533-8.533 8.536 8.536 0 0 0-8.533-8.533zM435.2 230.4c-18.825 0-34.133-15.309-34.133-34.133a8.536 8.536 0 0 0-8.533-8.533 8.536 8.536 0 0 0-8.533 8.533c0 18.825-15.309 34.133-34.133 34.133a8.536 8.536 0 0 0-8.533 8.533 8.536 8.536 0 0 0 8.533 8.533c18.825 0 34.133 15.309 34.133 34.133a8.536 8.536 0 0 0 8.533 8.533 8.536 8.536 0 0 0 8.533-8.533c0-18.825 15.309-34.133 34.133-34.133a8.536 8.536 0 0 0 8.533-8.533 8.536 8.536 0 0 0-8.533-8.533zm-42.667 22.929a51.723 51.723 0 0 0-14.396-14.396 51.617 51.617 0 0 0 14.396-14.396 51.723 51.723 0 0 0 14.396 14.396 51.75 51.75 0 0 0-14.396 14.396zM162.133 128C143.309 128 128 112.691 128 93.867c0-4.71-3.823-8.533-8.533-8.533s-8.533 3.823-8.533 8.533C110.933 112.691 95.625 128 76.8 128c-4.71 0-8.533 3.823-8.533 8.533s3.823 8.533 8.533 8.533c18.825 0 34.133 15.309 34.133 34.133 0 4.71 3.823 8.533 8.533 8.533S128 183.91 128 179.2c0-18.825 15.309-34.133 34.133-34.133 4.71 0 8.533-3.823 8.533-8.533S166.844 128 162.133 128zm-42.666 22.929a51.723 51.723 0 0 0-14.396-14.396 51.617 51.617 0 0 0 14.396-14.396 51.723 51.723 0 0 0 14.396 14.396 51.723 51.723 0 0 0-14.396 14.396z" fill="#FFFFFF" data-original="#FFFFFF" class=""></path></g></svg>
