<?xml version="1.0" encoding="UTF-8" standalone="no"?>
<svg
   id="Camada_2"
   viewBox="0 0 269.92001 73.120006"
   version="1.1"
   width="269.92001"
   height="73.120003"
   xmlns="http://www.w3.org/2000/svg"
   xmlns:svg="http://www.w3.org/2000/svg">
  <defs
     id="defs4">
    <style
       id="style2">.cls-1{fill:#fff;}.cls-2{letter-spacing:.2em;}.cls-3{font-family:Rawline-Black, Rawline;}.cls-3,.cls-4{fill:#222221;font-size:20.77px;}.cls-5{letter-spacing:.19em;}.cls-6{fill:#183eff;}.cls-7{fill:#00c;}.cls-8{fill:#00cf00;}.cls-9{letter-spacing:.2em;}.cls-4{font-family:Rawline-SemiBold, Rawline;}.cls-10{letter-spacing:.2em;}.cls-11{fill:#ffcf00;}.cls-12{fill:red;}.cls-13{fill:#3c3c3c;}.cls-14{letter-spacing:.12em;}</style>
  </defs>
  <g
     id="Camada_5"
     transform="translate(0,-29.29)">
    <g
       id="g90">
      <g
         id="g14">
        <path
           class="cls-7"
           d="m 269.92,65.85 c 0,2.41 -0.43,4.66 -1.28,6.74 -0.85,2.08 -2.11,3.94 -3.76,5.57 -1.65,1.6 -3.55,2.83 -5.71,3.69 -2.15,0.85 -4.44,1.28 -6.87,1.28 -2.43,0 -4.76,-0.43 -6.91,-1.28 -2.14,-0.86 -4.05,-2.1 -5.71,-3.73 -1.63,-1.59 -2.87,-3.43 -3.71,-5.49 -0.84,-2.07 -1.26,-4.33 -1.26,-6.77 0,-2.44 0.42,-4.71 1.26,-6.8 0.84,-2.08 2.07,-3.92 3.71,-5.51 1.65,-1.62 3.55,-2.85 5.69,-3.7 2.15,-0.85 4.46,-1.27 6.94,-1.27 2.48,0 4.78,0.42 6.93,1.27 2.14,0.85 4.05,2.07 5.71,3.7 1.62,1.6 2.85,3.45 3.7,5.54 0.85,2.09 1.27,4.34 1.27,6.77 m -17.61,6.22 c 1.66,0 3,-0.57 4.02,-1.7 1.01,-1.14 1.52,-2.63 1.52,-4.51 0,-1.88 -0.51,-3.4 -1.52,-4.56 -1.01,-1.14 -2.35,-1.72 -4.02,-1.72 -1.67,0 -3.02,0.58 -4.04,1.74 -1.02,1.15 -1.53,2.67 -1.53,4.54 0,1.87 0.51,3.38 1.53,4.51 1.02,1.13 2.37,1.7 4.04,1.7 M 204.25,82.26 V 49.3 h 14.89 c 4.32,0 7.61,0.95 9.89,2.85 2.28,1.91 3.42,4.66 3.42,8.25 0,2.34 -0.57,4.27 -1.72,5.78 -1.14,1.52 -2.7,2.4 -4.65,2.66 l 8.81,13.41 h -13.28 l -5.75,-10.87 v 10.87 h -11.61 z m 11.61,-24.47 v 6.45 h 1.84 c 1.12,0 1.99,-0.28 2.6,-0.82 0.61,-0.55 0.91,-1.34 0.91,-2.36 0,-1.02 -0.3,-1.86 -0.91,-2.43 -0.61,-0.56 -1.47,-0.84 -2.6,-0.84 z m -30.98,0.69 v 5.48 h 1.85 c 1.13,0 1.99,-0.24 2.6,-0.71 0.6,-0.47 0.9,-1.15 0.9,-2.01 0,-0.86 -0.31,-1.54 -0.92,-2.03 -0.62,-0.49 -1.47,-0.73 -2.57,-0.73 h -1.85 z M 172.99,82.26 V 49.3 h 14.15 c 4.98,0 8.62,0.96 10.92,2.88 2.3,1.92 3.46,4.97 3.46,9.14 0,3.88 -1.04,6.72 -3.11,8.52 -2.07,1.79 -5.35,2.69 -9.85,2.69 h -3.72 v 9.72 H 173 Z m -31.62,0 V 49.3 h 14.89 c 4.32,0 7.61,0.95 9.89,2.85 2.28,1.91 3.42,4.66 3.42,8.25 0,2.34 -0.57,4.27 -1.72,5.78 -1.15,1.52 -2.7,2.4 -4.65,2.66 l 8.81,13.41 h -13.28 l -5.75,-10.87 v 10.87 h -11.61 z m 11.61,-24.47 v 6.45 h 1.84 c 1.12,0 1.99,-0.28 2.59,-0.82 0.61,-0.55 0.91,-1.34 0.91,-2.36 0,-1.02 -0.3,-1.86 -0.91,-2.43 -0.61,-0.56 -1.47,-0.84 -2.59,-0.84 z M 115.64,82.26 V 49.3 h 22.04 v 8.94 h -10.42 v 3.18 h 9.46 v 8.43 h -9.46 v 3.46 h 10.69 v 8.94 h -22.3 z m -29.78,-2.81 3.78,-9.22 c 1.7,1.18 3.21,2.05 4.54,2.6 1.33,0.54 2.57,0.82 3.72,0.82 0.81,0 1.45,-0.16 1.92,-0.46 0.47,-0.31 0.7,-0.72 0.7,-1.25 0,-0.91 -1.16,-1.61 -3.49,-2.09 -0.75,-0.16 -1.34,-0.29 -1.76,-0.39 -2.47,-0.6 -4.35,-1.66 -5.65,-3.19 -1.31,-1.53 -1.96,-3.44 -1.96,-5.71 0,-3.54 1.27,-6.42 3.8,-8.64 2.53,-2.22 5.86,-3.33 9.97,-3.33 1.89,0 3.75,0.25 5.57,0.74 1.84,0.49 3.68,1.24 5.54,2.25 l -3.6,8.63 c -1.14,-0.84 -2.28,-1.48 -3.43,-1.93 -1.15,-0.44 -2.26,-0.66 -3.33,-0.66 -0.83,0 -1.47,0.14 -1.91,0.41 -0.45,0.28 -0.68,0.66 -0.68,1.16 0,0.93 1.65,1.74 4.92,2.45 0.52,0.12 0.93,0.21 1.21,0.27 2.26,0.52 4.05,1.55 5.36,3.13 1.31,1.57 1.96,3.48 1.96,5.71 0,3.65 -1.31,6.62 -3.95,8.93 -2.64,2.31 -6.06,3.46 -10.28,3.46 -2.16,0 -4.32,-0.31 -6.48,-0.92 -2.16,-0.62 -4.32,-1.54 -6.48,-2.77"
           id="path6" />
        <path
           class="cls-7"
           d="m 73.12,65.85 c 0,20.19 -16.37,36.56 -36.56,36.56 C 16.37,102.41 0,86.04 0,65.85 0,45.66 16.37,29.29 36.56,29.29 c 20.19,0 36.56,16.37 36.56,36.56"
           id="path8" />
        <path
           class="cls-1"
           d="m 39.83,79.57 c -6.18,6.18 -16.19,6.18 -22.37,0 -0.52,-0.52 -0.99,-1.07 -1.42,-1.63 1,1.69 2.22,3.29 3.68,4.74 9.3,9.3 24.38,9.3 33.69,0 1.83,-1.83 3.3,-3.89 4.41,-6.08 L 43.22,62 c 2.53,5.79 1.36,12.83 -3.38,17.57"
           id="path10" />
        <path
           class="cls-1"
           d="m 33.29,52.12 c 6.18,-6.18 16.19,-6.18 22.37,0 0.52,0.52 0.99,1.07 1.42,1.63 -1,-1.69 -2.22,-3.29 -3.68,-4.75 -9.3,-9.3 -24.38,-9.3 -33.69,0 -1.83,1.83 -3.3,3.89 -4.41,6.08 l 14.6,14.6 C 27.37,63.89 28.54,56.85 33.28,52.11"
           id="path12" />
      </g>
      <g
         id="g58">
        <path
           d="m 603.62,124.91 c 0,0.41 -0.03,0.8 -0.09,1.16 -0.06,0.36 -0.16,0.71 -0.3,1.05 -0.15,0.34 -0.33,0.63 -0.55,0.88 -0.22,0.25 -0.5,0.44 -0.85,0.59 -0.35,0.15 -0.74,0.22 -1.19,0.22 -0.45,0 -0.83,-0.07 -1.18,-0.22 -0.35,-0.15 -0.63,-0.34 -0.85,-0.58 -0.22,-0.24 -0.4,-0.53 -0.55,-0.87 -0.15,-0.34 -0.25,-0.69 -0.31,-1.06 -0.06,-0.37 -0.09,-0.76 -0.09,-1.17 v -5.53 h -1.73 v 5.53 c 0,0.59 0.05,1.14 0.15,1.65 0.1,0.52 0.27,1.01 0.51,1.49 0.24,0.47 0.53,0.88 0.89,1.21 0.36,0.34 0.8,0.6 1.34,0.8 0.54,0.2 1.14,0.3 1.82,0.3 0.82,0 1.53,-0.14 2.15,-0.43 0.62,-0.29 1.11,-0.68 1.48,-1.19 0.37,-0.51 0.64,-1.08 0.82,-1.73 0.18,-0.64 0.27,-1.35 0.27,-2.11 v -5.53 h -1.74 v 5.53 z m 14.7,2.36 -6.19,-7.89 h -1.41 v 10.91 h 1.72 v -7.72 l 6.1,7.72 h 1.51 v -10.9 h -1.73 v 7.87 z m 7.26,3.03 h 1.72 v -10.91 h -1.72 z m 10.41,-10.91 -4.28,10.91 h 1.83 l 1.14,-2.97 h 4.21 l 1.15,2.97 h 1.82 l -4.24,-10.91 z m -1,6.67 1.81,-4.78 1.76,4.78 z m 0.07,-8.13 c 0.02,-0.06 0.05,-0.14 0.09,-0.24 0.04,-0.1 0.12,-0.18 0.23,-0.25 0.11,-0.07 0.25,-0.1 0.41,-0.1 0.18,0 0.37,0.05 0.57,0.16 0.2,0.11 0.42,0.22 0.66,0.33 0.24,0.11 0.49,0.17 0.76,0.17 0.27,0 0.49,-0.05 0.7,-0.16 0.21,-0.11 0.38,-0.24 0.51,-0.39 0.13,-0.15 0.23,-0.31 0.32,-0.49 0.09,-0.18 0.15,-0.32 0.18,-0.45 0.03,-0.12 0.05,-0.22 0.05,-0.29 h -0.97 c 0,0 0,0.06 -0.01,0.11 0,0.04 -0.03,0.11 -0.06,0.18 -0.04,0.08 -0.08,0.15 -0.14,0.21 -0.06,0.07 -0.14,0.12 -0.25,0.17 -0.11,0.05 -0.23,0.08 -0.37,0.08 -0.2,0 -0.41,-0.06 -0.62,-0.17 -0.21,-0.11 -0.43,-0.23 -0.66,-0.34 -0.23,-0.11 -0.47,-0.17 -0.73,-0.17 -0.24,0 -0.46,0.05 -0.66,0.15 -0.2,0.1 -0.36,0.23 -0.47,0.38 -0.12,0.15 -0.22,0.31 -0.3,0.48 -0.08,0.17 -0.14,0.32 -0.17,0.45 -0.03,0.13 -0.04,0.23 -0.04,0.31 h 0.95 c 0,0 0,-0.08 0.02,-0.15 m 19.15,3.12 c -0.44,-0.52 -0.99,-0.94 -1.65,-1.26 -0.66,-0.32 -1.37,-0.48 -2.12,-0.48 -0.75,0 -1.43,0.15 -2.09,0.46 -0.66,0.31 -1.21,0.71 -1.67,1.22 -0.46,0.51 -0.82,1.09 -1.09,1.77 -0.27,0.67 -0.4,1.37 -0.4,2.09 0,0.56 0.08,1.1 0.24,1.65 0.16,0.54 0.39,1.05 0.7,1.51 0.31,0.47 0.67,0.88 1.09,1.23 0.42,0.36 0.9,0.63 1.45,0.84 0.55,0.2 1.13,0.3 1.74,0.3 0.74,0 1.43,-0.15 2.09,-0.45 0.66,-0.3 1.21,-0.71 1.67,-1.21 0.45,-0.51 0.82,-1.09 1.08,-1.76 0.27,-0.67 0.4,-1.37 0.4,-2.09 0,-0.72 -0.13,-1.36 -0.38,-2.02 -0.26,-0.66 -0.6,-1.26 -1.05,-1.78 m -0.57,5.24 c -0.16,0.47 -0.38,0.89 -0.66,1.27 -0.28,0.38 -0.65,0.68 -1.1,0.91 -0.45,0.23 -0.93,0.35 -1.46,0.35 -0.69,0 -1.31,-0.19 -1.85,-0.57 -0.54,-0.38 -0.95,-0.87 -1.23,-1.47 -0.28,-0.6 -0.42,-1.25 -0.42,-1.94 0,-0.5 0.08,-0.98 0.24,-1.45 0.16,-0.47 0.39,-0.89 0.68,-1.27 0.29,-0.38 0.66,-0.68 1.11,-0.9 0.45,-0.23 0.94,-0.34 1.47,-0.34 0.53,0 0.98,0.11 1.42,0.33 0.44,0.22 0.8,0.51 1.1,0.88 0.29,0.37 0.52,0.79 0.69,1.27 0.17,0.48 0.25,0.97 0.25,1.49 0,0.52 -0.08,0.98 -0.24,1.45 m 15.43,-0.85 h 4.87 v -1.43 h -4.87 v -3.1 h 5.63 v -1.52 h -7.35 v 10.91 h 7.48 v -1.52 h -5.76 v -3.33 z m 25.01,-0.5 c 0.39,-0.6 0.59,-1.27 0.59,-2.01 0,-0.44 -0.08,-0.87 -0.26,-1.29 -0.17,-0.43 -0.4,-0.81 -0.69,-1.14 -0.29,-0.34 -0.65,-0.61 -1.08,-0.81 -0.43,-0.21 -0.88,-0.31 -1.35,-0.31 h -4.75 v 10.91 h 1.72 v -3.8 h 2.54 l 2.37,3.8 h 1.94 l -2.57,-4.15 c 0.64,-0.2 1.16,-0.61 1.55,-1.2 m -2.81,0.03 h -3.02 v -4.07 h 2.92 c 0.46,0 0.87,0.2 1.22,0.6 0.35,0.4 0.53,0.87 0.53,1.43 0,0.56 -0.16,1.05 -0.47,1.45 -0.31,0.4 -0.7,0.6 -1.18,0.6 m 10.21,0.47 h 4.87 v -1.43 h -4.87 v -3.1 h 5.63 v -1.52 h -7.35 v 10.91 h 7.48 v -1.52 h -5.77 v -3.33 z m 17.12,2.62 c -0.33,0.28 -0.68,0.48 -1.04,0.59 -0.36,0.12 -0.72,0.18 -1.1,0.18 -0.66,0 -1.26,-0.19 -1.81,-0.56 -0.55,-0.37 -0.97,-0.86 -1.26,-1.47 -0.3,-0.61 -0.45,-1.27 -0.45,-1.97 0,-0.39 0.05,-0.77 0.14,-1.14 0.09,-0.38 0.24,-0.73 0.43,-1.07 0.2,-0.34 0.43,-0.64 0.7,-0.89 0.27,-0.26 0.6,-0.46 0.98,-0.61 0.38,-0.15 0.79,-0.23 1.23,-0.23 0.28,0 0.54,0.03 0.81,0.09 0.26,0.06 0.52,0.15 0.78,0.28 0.26,0.13 0.5,0.31 0.72,0.54 0.22,0.23 0.4,0.51 0.55,0.82 l 1.35,-0.91 c -0.37,-0.72 -0.91,-1.3 -1.63,-1.73 -0.72,-0.43 -1.56,-0.65 -2.52,-0.65 -0.65,0 -1.25,0.1 -1.82,0.31 -0.57,0.21 -1.06,0.49 -1.48,0.84 -0.42,0.36 -0.77,0.76 -1.08,1.23 -0.3,0.46 -0.53,0.96 -0.68,1.48 -0.15,0.52 -0.23,1.05 -0.23,1.58 0,0.69 0.13,1.37 0.39,2.05 0.26,0.67 0.61,1.27 1.06,1.81 0.45,0.53 1,0.96 1.66,1.28 0.66,0.33 1.36,0.49 2.1,0.49 0.59,0 1.17,-0.09 1.75,-0.28 0.58,-0.19 1.11,-0.48 1.6,-0.88 0.49,-0.4 0.84,-0.85 1.05,-1.37 l -1.43,-0.81 c -0.18,0.41 -0.44,0.75 -0.77,1.02 m 15.07,-7.01 c -0.44,-0.52 -0.99,-0.94 -1.65,-1.26 -0.66,-0.32 -1.37,-0.48 -2.12,-0.48 -0.75,0 -1.43,0.15 -2.09,0.46 -0.66,0.31 -1.21,0.71 -1.67,1.22 -0.46,0.51 -0.82,1.09 -1.09,1.77 -0.27,0.67 -0.4,1.37 -0.4,2.09 0,0.56 0.08,1.1 0.24,1.65 0.16,0.54 0.39,1.05 0.7,1.51 0.31,0.47 0.67,0.88 1.09,1.23 0.42,0.36 0.9,0.63 1.45,0.84 0.55,0.2 1.13,0.3 1.74,0.3 0.74,0 1.43,-0.15 2.09,-0.45 0.66,-0.3 1.21,-0.71 1.67,-1.21 0.45,-0.51 0.82,-1.09 1.08,-1.76 0.27,-0.67 0.4,-1.37 0.4,-2.09 0,-0.72 -0.13,-1.36 -0.38,-2.02 -0.25,-0.66 -0.6,-1.26 -1.05,-1.78 m -0.57,5.24 c -0.16,0.47 -0.38,0.89 -0.66,1.27 -0.28,0.38 -0.65,0.68 -1.1,0.91 -0.45,0.23 -0.93,0.35 -1.46,0.35 -0.69,0 -1.31,-0.19 -1.85,-0.57 -0.54,-0.38 -0.95,-0.87 -1.23,-1.47 -0.28,-0.6 -0.42,-1.25 -0.42,-1.94 0,-0.5 0.08,-0.98 0.24,-1.45 0.16,-0.47 0.39,-0.89 0.68,-1.27 0.29,-0.38 0.66,-0.68 1.11,-0.9 0.45,-0.23 0.94,-0.34 1.47,-0.34 0.53,0 0.98,0.11 1.42,0.33 0.44,0.22 0.8,0.51 1.1,0.88 0.29,0.37 0.52,0.79 0.69,1.27 0.17,0.48 0.25,0.97 0.25,1.49 0,0.52 -0.08,0.98 -0.24,1.45 m 14.46,0.98 -6.19,-7.89 h -1.41 v 10.91 h 1.72 v -7.72 l 6.1,7.72 h 1.51 v -10.9 h -1.73 v 7.87 z m 14.31,-1.82 c -0.19,-0.21 -0.44,-0.41 -0.76,-0.58 -0.32,-0.17 -0.64,-0.32 -0.98,-0.43 -0.34,-0.11 -0.75,-0.23 -1.23,-0.34 -0.3,-0.08 -0.54,-0.14 -0.73,-0.18 -0.18,-0.05 -0.38,-0.1 -0.6,-0.17 -0.21,-0.07 -0.38,-0.13 -0.5,-0.19 -0.12,-0.06 -0.25,-0.13 -0.37,-0.22 -0.12,-0.08 -0.22,-0.17 -0.28,-0.27 -0.06,-0.09 -0.11,-0.2 -0.15,-0.32 -0.04,-0.12 -0.06,-0.26 -0.06,-0.41 0,-0.48 0.18,-0.85 0.53,-1.11 0.35,-0.26 0.88,-0.39 1.59,-0.39 0.6,0 1.18,0.12 1.75,0.36 0.57,0.24 0.97,0.49 1.2,0.75 l 0.78,-1.41 c -1.12,-0.82 -2.34,-1.23 -3.69,-1.23 -0.57,0 -1.09,0.07 -1.57,0.22 -0.48,0.14 -0.9,0.36 -1.25,0.63 -0.36,0.28 -0.63,0.62 -0.84,1.05 -0.2,0.42 -0.3,0.9 -0.3,1.42 0,0.42 0.07,0.78 0.2,1.09 0.13,0.31 0.34,0.57 0.63,0.8 0.29,0.23 0.62,0.42 0.99,0.57 0.38,0.16 0.85,0.31 1.43,0.46 0.37,0.1 0.66,0.17 0.88,0.23 0.22,0.06 0.46,0.14 0.72,0.23 0.26,0.09 0.47,0.18 0.61,0.26 0.14,0.09 0.28,0.19 0.42,0.3 0.14,0.12 0.23,0.25 0.29,0.39 0.06,0.14 0.08,0.31 0.08,0.49 0,0.45 -0.18,0.8 -0.55,1.04 -0.37,0.24 -0.89,0.36 -1.57,0.36 -0.76,0 -1.49,-0.15 -2.2,-0.45 -0.71,-0.3 -1.23,-0.62 -1.54,-0.94 l -0.79,1.48 c 0.62,0.48 1.32,0.84 2.09,1.09 0.78,0.25 1.58,0.38 2.41,0.38 0.45,0 0.87,-0.04 1.26,-0.11 0.39,-0.07 0.76,-0.19 1.1,-0.35 0.34,-0.16 0.63,-0.36 0.87,-0.6 0.24,-0.24 0.43,-0.54 0.57,-0.89 0.14,-0.35 0.21,-0.74 0.21,-1.18 0,-0.39 -0.06,-0.74 -0.17,-1.04 -0.11,-0.31 -0.26,-0.56 -0.45,-0.78 m 4.42,-4.54 h 3.64 v 9.39 h 1.74 v -9.39 h 3.63 v -1.52 h -9.01 z m 21.08,4.03 c 0.39,-0.6 0.59,-1.27 0.59,-2.01 0,-0.44 -0.08,-0.87 -0.26,-1.29 -0.17,-0.43 -0.4,-0.81 -0.69,-1.14 -0.29,-0.34 -0.65,-0.61 -1.08,-0.81 -0.43,-0.21 -0.88,-0.31 -1.35,-0.31 h -4.75 v 10.91 h 1.72 v -3.8 h 2.54 l 2.37,3.8 h 1.94 l -2.57,-4.15 c 0.64,-0.2 1.16,-0.61 1.55,-1.2 m -2.81,0.03 h -3.02 v -4.07 h 2.92 c 0.46,0 0.87,0.2 1.22,0.6 0.35,0.4 0.53,0.87 0.53,1.43 0,0.56 -0.16,1.05 -0.47,1.45 -0.31,0.4 -0.7,0.6 -1.18,0.6 M 800.64,125 c 0,0.41 -0.03,0.8 -0.09,1.16 -0.06,0.36 -0.16,0.71 -0.3,1.05 -0.15,0.34 -0.33,0.63 -0.55,0.88 -0.22,0.25 -0.5,0.44 -0.85,0.59 -0.35,0.15 -0.74,0.22 -1.19,0.22 -0.45,0 -0.83,-0.07 -1.18,-0.22 -0.35,-0.15 -0.63,-0.34 -0.85,-0.58 -0.22,-0.24 -0.4,-0.53 -0.55,-0.87 -0.15,-0.34 -0.25,-0.69 -0.31,-1.06 -0.06,-0.37 -0.09,-0.76 -0.09,-1.17 v -5.53 h -1.73 V 125 c 0,0.59 0.05,1.14 0.15,1.65 0.1,0.52 0.27,1.01 0.51,1.49 0.24,0.47 0.53,0.88 0.89,1.21 0.36,0.34 0.8,0.6 1.34,0.8 0.54,0.2 1.14,0.3 1.82,0.3 0.82,0 1.53,-0.14 2.15,-0.43 0.62,-0.29 1.11,-0.68 1.48,-1.19 0.37,-0.51 0.64,-1.08 0.82,-1.73 0.18,-0.64 0.27,-1.35 0.27,-2.11 v -5.53 h -1.74 v 5.53 z m 13.82,3.15 c -0.33,0.28 -0.68,0.48 -1.04,0.59 -0.36,0.12 -0.72,0.18 -1.1,0.18 -0.66,0 -1.26,-0.19 -1.81,-0.56 -0.55,-0.37 -0.97,-0.86 -1.26,-1.47 -0.3,-0.61 -0.45,-1.27 -0.45,-1.97 0,-0.39 0.05,-0.77 0.14,-1.14 0.09,-0.38 0.24,-0.73 0.43,-1.07 0.2,-0.34 0.43,-0.64 0.7,-0.89 0.27,-0.26 0.6,-0.46 0.98,-0.61 0.38,-0.15 0.79,-0.23 1.23,-0.23 0.28,0 0.54,0.03 0.81,0.09 0.26,0.06 0.52,0.15 0.78,0.28 0.26,0.13 0.5,0.31 0.72,0.54 0.22,0.23 0.4,0.51 0.55,0.82 l 1.35,-0.91 c -0.37,-0.72 -0.91,-1.3 -1.63,-1.73 -0.72,-0.43 -1.56,-0.65 -2.52,-0.65 -0.65,0 -1.25,0.1 -1.82,0.31 -0.57,0.21 -1.06,0.49 -1.48,0.84 -0.42,0.36 -0.77,0.76 -1.08,1.23 -0.3,0.46 -0.53,0.96 -0.68,1.48 -0.15,0.52 -0.23,1.05 -0.23,1.58 0,0.66 0.12,1.31 0.36,1.96 0.24,0.65 0.56,1.23 0.98,1.75 0.42,0.52 0.93,0.95 1.53,1.3 0.61,0.35 1.26,0.55 1.96,0.6 0.55,0.36 0.83,0.74 0.83,1.14 0,0.24 -0.08,0.41 -0.24,0.54 -0.16,0.12 -0.39,0.18 -0.68,0.18 -0.34,0 -0.7,-0.11 -1.09,-0.32 l -0.43,0.91 c 0.58,0.3 1.18,0.44 1.81,0.44 0.53,0 0.94,-0.13 1.24,-0.39 0.3,-0.26 0.44,-0.61 0.44,-1.05 0,-0.55 -0.26,-1.04 -0.79,-1.48 0.81,-0.12 1.56,-0.39 2.24,-0.83 0.69,-0.44 1.17,-0.99 1.45,-1.66 l -1.43,-0.81 c -0.18,0.41 -0.44,0.75 -0.77,1.02 m 9.87,-8.68 -4.28,10.91 h 1.83 l 1.14,-2.97 h 4.21 l 1.15,2.97 h 1.82 l -4.24,-10.91 z m -1,6.67 1.81,-4.78 1.76,4.78 z m 0.07,-8.13 c 0.02,-0.06 0.04,-0.14 0.09,-0.24 0.04,-0.1 0.12,-0.18 0.23,-0.25 0.11,-0.07 0.25,-0.1 0.41,-0.1 0.18,0 0.37,0.05 0.57,0.16 0.2,0.11 0.42,0.22 0.66,0.33 0.24,0.11 0.49,0.17 0.76,0.17 0.27,0 0.49,-0.05 0.7,-0.16 0.21,-0.11 0.38,-0.24 0.51,-0.39 0.12,-0.15 0.23,-0.31 0.32,-0.49 0.09,-0.18 0.15,-0.32 0.18,-0.45 0.03,-0.12 0.05,-0.22 0.05,-0.29 h -0.97 c 0,0 0,0.06 -0.01,0.11 0,0.04 -0.03,0.11 -0.06,0.18 -0.04,0.08 -0.08,0.15 -0.14,0.21 -0.06,0.07 -0.14,0.12 -0.25,0.17 -0.11,0.05 -0.23,0.08 -0.37,0.08 -0.2,0 -0.41,-0.06 -0.62,-0.17 -0.21,-0.11 -0.43,-0.23 -0.66,-0.34 -0.23,-0.11 -0.47,-0.17 -0.73,-0.17 -0.24,0 -0.46,0.05 -0.66,0.15 -0.2,0.1 -0.36,0.23 -0.47,0.38 -0.12,0.15 -0.22,0.31 -0.3,0.48 -0.08,0.17 -0.14,0.32 -0.17,0.45 -0.03,0.13 -0.05,0.23 -0.05,0.31 h 0.95 c 0,0 0,-0.08 0.02,-0.15 m 20.2,4.9 c -0.26,-0.66 -0.6,-1.26 -1.05,-1.78 -0.44,-0.52 -0.99,-0.94 -1.66,-1.26 -0.66,-0.32 -1.37,-0.48 -2.12,-0.48 -0.75,0 -1.43,0.15 -2.09,0.46 -0.66,0.31 -1.21,0.71 -1.67,1.22 -0.46,0.51 -0.82,1.09 -1.09,1.77 -0.27,0.67 -0.4,1.37 -0.4,2.09 0,0.56 0.08,1.1 0.24,1.65 0.16,0.54 0.39,1.05 0.7,1.51 0.31,0.47 0.67,0.88 1.09,1.23 0.42,0.35 0.9,0.63 1.45,0.84 0.55,0.2 1.13,0.3 1.74,0.3 0.74,0 1.43,-0.15 2.09,-0.45 0.66,-0.3 1.21,-0.71 1.67,-1.21 0.46,-0.51 0.82,-1.09 1.09,-1.76 0.27,-0.67 0.4,-1.37 0.4,-2.09 0,-0.72 -0.13,-1.36 -0.38,-2.02 m -1.62,3.46 c -0.16,0.47 -0.38,0.89 -0.66,1.27 -0.29,0.38 -0.65,0.68 -1.1,0.91 -0.45,0.23 -0.93,0.35 -1.46,0.35 -0.69,0 -1.31,-0.19 -1.85,-0.57 -0.54,-0.38 -0.95,-0.87 -1.23,-1.47 -0.28,-0.6 -0.42,-1.25 -0.42,-1.94 0,-0.5 0.08,-0.98 0.24,-1.45 0.16,-0.47 0.39,-0.89 0.68,-1.27 0.29,-0.38 0.66,-0.68 1.11,-0.9 0.45,-0.23 0.94,-0.34 1.47,-0.34 0.53,0 0.98,0.11 1.42,0.33 0.44,0.22 0.8,0.51 1.1,0.88 0.29,0.37 0.52,0.79 0.69,1.27 0.17,0.48 0.25,0.97 0.25,1.49 0,0.52 -0.08,0.98 -0.24,1.45"
           id="path16" />
        <path
           d="m 602.01,9.28 h 3.74 c -0.33,0.9 -1.27,1.64 -2.74,1.64 -2.1,0 -3.56,-1.51 -3.56,-3.6 0,-2.09 1.45,-3.7 3.49,-3.7 1.31,0 2.43,0.63 3.05,1.74 l 3.19,-1.9 c -1.29,-2.15 -3.64,-3.45 -6.19,-3.45 -4.05,0 -7.28,3.23 -7.28,7.3 0,4.07 3.21,7.26 7.3,7.26 3.84,0 6.74,-2.82 6.74,-7.15 V 6.34 H 602 V 9.3 Z M 622.2,0 c -4.07,0 -7.3,3.23 -7.3,7.28 0,4.05 3.23,7.28 7.3,7.28 4.07,0 7.26,-3.23 7.26,-7.28 C 629.46,3.23 626.23,0 622.2,0 m 0,10.71 c -1.86,0 -3.29,-1.47 -3.29,-3.43 0,-1.96 1.43,-3.43 3.29,-3.43 1.86,0 3.23,1.47 3.23,3.43 0,1.96 -1.41,3.43 -3.23,3.43 m 18.05,-1.82 -3.23,-8.56 h -4.03 l 5.38,13.9 h 3.74 l 5.44,-13.9 h -4.03 z m 12.18,5.33 h 9.95 v -3.39 h -6.19 V 8.77 h 4.09 V 5.79 h -4.09 V 3.72 h 6.19 V 0.33 h -9.95 v 13.9 z m 27.26,-9.38 c 0,-2.58 -2.08,-4.52 -4.8,-4.52 h -6.72 v 13.91 h 3.7 v -4.8 h 1.57 l 2.76,4.8 h 4.15 l -3.09,-5.35 c 1.47,-0.78 2.43,-2.25 2.43,-4.03 m -5.21,1.41 h -2.62 v -2.6 h 2.62 c 0.9,0 1.43,0.61 1.43,1.31 0,0.7 -0.55,1.29 -1.43,1.29 m 19.78,1.41 -5.62,-7.34 h -3.15 v 13.9 h 3.7 V 6.91 l 5.6,7.32 h 3.17 V 0.33 h -3.7 v 7.33 z m 16.39,-7.66 c -4.07,0 -7.3,3.23 -7.3,7.28 0,4.05 3.23,7.28 7.3,7.28 4.07,0 7.26,-3.23 7.26,-7.28 0,-4.05 -3.23,-7.28 -7.26,-7.28 m 0,10.71 c -1.86,0 -3.29,-1.47 -3.29,-3.43 0,-1.96 1.43,-3.43 3.29,-3.43 1.86,0 3.23,1.47 3.23,3.43 0,1.96 -1.41,3.43 -3.23,3.43 m 21.85,3.52 h 3.76 V 9.17 h 4.09 V 6.02 h -4.09 V 3.66 h 6.19 V 0.33 h -9.95 v 13.9 z m 15.57,0 h 9.95 v -3.39 h -6.19 V 8.79 h 4.09 V 5.81 h -4.09 V 3.72 h 6.19 V 0.33 h -9.95 v 13.9 z m 21.4,-13.91 h -5.66 v 13.9 h 5.66 c 4.23,0 7.42,-2.96 7.42,-6.95 0,-3.99 -3.19,-6.95 -7.42,-6.95 m -0.18,10.28 h -1.7 V 3.94 h 1.7 c 2.21,0 3.72,1.31 3.72,3.33 0,2.02 -1.51,3.33 -3.72,3.33 m 13,3.62 h 9.95 v -3.39 h -6.19 V 8.77 h 4.09 V 5.79 h -4.09 V 3.72 h 6.19 V 0.33 h -9.95 v 13.9 z m 27.26,-9.38 c 0,-2.58 -2.08,-4.52 -4.8,-4.52 h -6.72 v 13.91 h 3.7 v -4.8 h 1.57 l 2.76,4.8 h 4.15 l -3.09,-5.35 c 1.47,-0.78 2.43,-2.25 2.43,-4.03 m -5.21,1.41 h -2.62 v -2.6 h 2.62 c 0.9,0 1.43,0.61 1.43,1.31 0,0.7 -0.55,1.29 -1.43,1.29 m 15.78,-5.93 -5.8,13.9 h 3.9 l 0.96,-2.39 h 5.5 l 0.98,2.39 h 3.88 l -5.87,-13.9 h -3.56 z m 0.41,8.2 1.39,-3.41 1.39,3.41 z m 17.84,2.13 V 0.33 h -3.94 v 13.9 h 9.79 v -3.58 h -5.85 z"
           id="path18" />
        <rect
           class="cls-11"
           x="818.90002"
           y="29.290001"
           width="25.309999"
           height="48.610001"
           id="rect20" />
        <rect
           class="cls-6"
           x="844.21002"
           y="77.900002"
           width="25.309999"
           height="24.58"
           id="rect22" />
        <rect
           class="cls-13"
           x="818.90002"
           y="77.900002"
           width="25.309999"
           height="24.58"
           id="rect24" />
        <rect
           class="cls-8"
           x="789.32001"
           y="29.290001"
           width="25.309999"
           height="73.199997"
           id="rect26" />
        <rect
           class="cls-12"
           x="733.73999"
           y="61.82"
           width="23.93"
           height="40.669998"
           id="rect28" />
        <rect
           class="cls-6"
           x="757.66998"
           y="29.290001"
           width="27.379999"
           height="26.620001"
           id="rect30" />
        <path
           class="cls-11"
           d="m 766.03,55.9 h -8.36 v 46.58 h 8.36 c 12.86,0 23.29,-10.43 23.29,-23.29 0,-12.86 -10.43,-23.29 -23.29,-23.29"
           id="path32" />
        <path
           class="cls-8"
           d="m 750.01,29.29 c -8.98,0 -16.27,7.28 -16.27,16.27 0,8.99 7.28,16.27 16.27,16.27 h 7.66 V 29.29 Z"
           id="path34" />
        <path
           class="cls-6"
           d="m 595.39,58.66 h 5.86 c 8.11,0 14.68,-6.57 14.68,-14.68 0,-8.11 -6.57,-14.68 -14.68,-14.68 h -5.86 v 29.37 z"
           id="path36" />
        <rect
           class="cls-8"
           x="570.08002"
           y="29.290001"
           width="25.309999"
           height="29.370001"
           id="rect38" />
        <rect
           class="cls-11"
           x="570.08002"
           y="58.66"
           width="25.309999"
           height="43.830002"
           id="rect40" />
        <path
           class="cls-12"
           d="m 603.71,58.66 h -8.32 v 43.83 h 8.32 c 12.1,0 21.91,-9.81 21.91,-21.91 0,-12.1 -9.81,-21.91 -21.91,-21.91"
           id="path42" />
        <polygon
           class="cls-8"
           points="654.35,73.49 625.63,73.49 625.63,102.48 673.2,102.48 "
           id="polygon44" />
        <polygon
           class="cls-11"
           points="625.63,29.29 625.63,73.49 654.35,73.49 "
           id="polygon46" />
        <path
           class="cls-6"
           d="m 654.35,29.29 h -28.72 l 28.72,44.21 c 12.21,0 22.1,-9.9 22.1,-22.1 0,-12.2 -9.9,-22.1 -22.1,-22.1"
           id="path48" />
        <polygon
           class="cls-11"
           points="659.34,102.48 746.41,102.48 702.88,29.29 "
           id="polygon50" />
        <polygon
           class="cls-13"
           points="733.74,102.48 746.41,102.48 733.74,81.18 "
           id="polygon52" />
        <polygon
           class="cls-13"
           points="673.2,102.48 665.97,91.35 659.34,102.48 "
           id="polygon54" />
        <path
           class="cls-6"
           d="m 729.58,102.48 c 0,-14.75 -11.96,-26.7 -26.7,-26.7 -14.74,0 -26.7,11.96 -26.7,26.7 h 53.41 z"
           id="path56" />
      </g>
      <g
         id="g88">
        <text
           class="cls-4"
           transform="translate(318.53,58.91)"
           id="text74"><tspan
             class="cls-10"
             x="0"
             y="0"
             id="tspan60">MIN</tspan><tspan
             class="cls-9"
             x="52.099998"
             y="0"
             id="tspan62">I</tspan><tspan
             class="cls-2"
             x="61.880001"
             y="0"
             id="tspan64">STÉR</tspan><tspan
             class="cls-9"
             x="130.22"
             y="0"
             id="tspan66">IO</tspan><tspan
             class="cls-2"
             x="159.75"
             y="0"
             id="tspan68" /><tspan
             class="cls-5"
             x="169.03"
             y="0"
             id="tspan70">D</tspan><tspan
             x="187.75999"
             y="0"
             id="tspan72">A</tspan></text>
        <text
           class="cls-3"
           transform="translate(402.05,88.08)"
           id="text86"><tspan
             class="cls-14"
             x="0"
             y="0"
             id="tspan76">F</tspan><tspan
             class="cls-9"
             x="14.21"
             y="0"
             id="tspan78">A</tspan><tspan
             class="cls-2"
             x="32.200001"
             y="0"
             id="tspan80">ZEN</tspan><tspan
             class="cls-5"
             x="85.620003"
             y="0"
             id="tspan82">D</tspan><tspan
             x="104.36"
             y="0"
             id="tspan84">A</tspan></text>
      </g>
    </g>
  </g>
</svg>
