<svg xmlns:xlink="http://www.w3.org/1999/xlink" width="1558" xmlns="http://www.w3.org/2000/svg" height="1321" id="screenshot-b3802edf-2b5d-802c-8001-fd9831773275" viewBox="0 0 1558 1321" style="-webkit-print-color-adjust: exact;" fill="none" version="1.1"><g id="shape-b3802edf-2b5d-802c-8001-fd9831773275" rx="0" ry="0"><g id="shape-cd7207d1-f87c-8041-8001-e2e865756e1e"><g class="fills" id="fills-cd7207d1-f87c-8041-8001-e2e865756e1e"><rect rx="0" ry="0" x="649" y="0" transform="matrix(1.000000, -0.000000, 0.000000, 1.000000, -0.000003, 0.000013)" width="442" height="429" style="fill: rgb(235, 238, 243); fill-opacity: 1;"/></g></g><g id="shape-cd7207d1-f87c-8041-8001-e2e865756e1f"><g class="fills" id="fills-cd7207d1-f87c-8041-8001-e2e865756e1f"><rect rx="0" ry="0" x="636" y="892" transform="matrix(1.000000, -0.000000, 0.000000, 1.000000, -0.000016, 0.000013)" width="442" height="429" style="fill: rgb(235, 238, 243); fill-opacity: 1;"/></g></g><g id="shape-cd7207d1-f87c-8041-8001-e2e865756e20"><g class="fills" id="fills-cd7207d1-f87c-8041-8001-e2e865756e20"><rect rx="0" ry="0" x="1116" y="449" transform="matrix(1.000000, -0.000000, 0.000000, 1.000000, -0.000010, 0.000020)" width="442" height="429" style="fill: rgb(235, 238, 243); fill-opacity: 1;"/></g></g><g id="shape-cd7207d1-f87c-8041-8001-e2e865756e21"><g class="fills" id="fills-cd7207d1-f87c-8041-8001-e2e865756e21"><rect rx="0" ry="0" x="195.00000000219188" y="200.00000000225737" transform="matrix(1.000000, 0.000000, 0.000000, 1.000000, -0.000000, -0.000000)" width="179.9999999999991" height="174.9999999999991" style="fill: rgb(235, 238, 243); fill-opacity: 1;"/></g></g><g id="shape-cd7207d1-f87c-8041-8001-e2e865756e22"><g class="fills" id="fills-cd7207d1-f87c-8041-8001-e2e865756e22"><rect rx="0" ry="0" x="2.190972736570984e-9" y="361.00000000225737" transform="matrix(1.000000, 0.000000, 0.000000, 1.000000, -0.000000, -0.000000)" width="179.9999999999991" height="175" style="fill: rgb(235, 238, 243); fill-opacity: 1;"/></g></g><g id="shape-cd7207d1-f87c-8041-8001-e2e865756e23"><g class="fills" id="fills-cd7207d1-f87c-8041-8001-e2e865756e23"><rect rx="0" ry="0" x="195.00000000219097" y="947.0000000022574" transform="matrix(1.000000, 0.000000, 0.000000, 1.000000, -0.000000, -0.000000)" width="179.9999999999991" height="175" style="fill: rgb(235, 238, 243); fill-opacity: 1;"/></g></g><g id="shape-cd7207d1-f87c-8041-8001-e2e865756e24"><g class="fills" id="fills-cd7207d1-f87c-8041-8001-e2e865756e24"><rect rx="0" ry="0" x="2.190972736570984e-9" y="1122.0000000022574" transform="matrix(1.000000, 0.000000, 0.000000, 1.000000, -0.000000, -0.000000)" width="179.9999999999991" height="175" style="fill: rgb(235, 238, 243); fill-opacity: 1;"/></g></g></g></svg>