<svg xmlns="http://www.w3.org/2000/svg" version="1.1" xmlns:xlink="http://www.w3.org/1999/xlink" xmlns:svgjs="http://svgjs.com/svgjs" width="512" height="512" x="0" y="0" viewBox="0 0 523.277 523.277" style="enable-background:new 0 0 512 512" xml:space="preserve" class=""><g><path d="M489.3 135.196h-31.174l9.14-92.332c.902-9.111-5.777-17.257-14.888-18.159l-27.817-2.753c-9.652-.964-11.126 13.972-1.478 14.927l27.816 2.753a1.607 1.607 0 0 1 1.439 1.755L436.647 199.9h-12.376l-4.762-87.172c-.493-9.037-8.439-16.183-17.485-15.674l-42.384 2.315-5.646-40.222c-1.259-8.974-9.78-15.392-18.751-14.136l-138.99 19.51 4.819-48.682c.051-.512.521-.877 1.052-.833l179.77 17.795c9.653.962 11.126-13.972 1.478-14.927L203.602.079c-8.772-.871-16.591 5.54-17.456 14.282l-5.178 52.306-93.289 13.095c-8.717 1.224-14.815 9.297-13.595 17.997l5.255 37.438H33.977c-15.626 0-28.338 12.728-28.338 28.373v331.336c0 15.645 12.712 28.372 28.338 28.372h50.662c9.697 0 9.697-15 0-15H33.977c-7.355 0-13.338-5.999-13.338-13.372V163.569c0-7.374 5.983-13.373 13.338-13.373h68.513l19.164 59.503a7.499 7.499 0 0 0 7.139 5.201h373.846v280.004c0 7.374-5.983 13.372-13.338 13.372H128.639c-9.697 0-9.697 15 0 15H489.3c15.626 0 28.338-12.728 28.338-28.372V163.569c0-15.645-12.712-28.373-28.338-28.373zm-86.456-23.165c.981.038 1.545.543 1.689 1.515l4.717 86.354H156.312l-4.001-73.251c.03-.576.334-.904.913-.984zm-287.72 28.464c-.953-3.096-3.929-5.298-7.17-5.298H94.486l-5.548-39.522c-.071-.509.299-.984.826-1.058l96.963-13.611c.118.017.233.041.353.053a7.443 7.443 0 0 0 3.841-.642L337.33 59.866c.981-.045 1.585.41 1.812 1.366l5.469 38.958-192.204 10.498c-8.683.474-15.547 8.085-15.072 16.779l3.956 72.434h-7.033zm336.597 59.406 4.92-49.704H489.3c7.355 0 13.338 5.999 13.338 13.373v36.332h-50.917z" fill="#FFFFFF" data-original="#FFFFFF" class=""></path><path d="M400.215 448.21a7.5 7.5 0 0 0 7.5-7.5v-68.483a7.5 7.5 0 0 0-7.5-7.5H123.062a7.5 7.5 0 0 0-7.5 7.5v68.483a7.5 7.5 0 0 0 7.5 7.5zm-269.653-68.483h262.153v53.483H130.562z" fill="#FFFFFF" data-original="#FFFFFF" class=""></path><path d="M353.328 398.969h-183.38c-9.697 0-9.697 15 0 15h183.38c9.698 0 9.698-15 0-15z" fill="#FFFFFF" data-original="#FFFFFF" class=""></path></g></svg>
