<?xml version="1.0" encoding="UTF-8" standalone="no"?>
<!-- Created with Inkscape (http://www.inkscape.org/) -->

<svg
   width="213.12572"
   height="156.76659"
   viewBox="0 0 213.12572 156.76659"
   version="1.1"
   id="svg5"
   xmlns="http://www.w3.org/2000/svg"
   xmlns:svg="http://www.w3.org/2000/svg">
  <defs
     id="defs2" />
  <g
     id="layer1"
     transform="translate(-580.99036,910.1589)">
    <g
       id="g854"
       transform="translate(227.29348,-193.0665)">
      <g
         id="g1221"
         transform="translate(-4,94)">
        <path
           style="fill:#333333;fill-opacity:1;stroke-width:2.62667"
           d="m 287.80986,593.91502 c -11.82945,-2.04118 -17.89336,-5.46215 -27.4145,-15.46633 -9.31074,-9.78275 -8.92278,-9.86182 7.50307,-1.52846 44.07676,22.36159 93.74437,-12.29043 114.84385,-80.12406 5.31033,-17.07227 6.13195,-25.18499 6.16084,-60.81938 0.0263,-22.61533 0.82819,-40.62795 1.79953,-40.0275 3.91294,2.41811 10.05382,38.88253 10.05382,59.6978 0,52.1753 -30.96129,111.41028 -68.14883,130.38189 -13.3298,6.80044 -32.02036,10.0906 -44.79778,7.88604 z M 88.1833,584.45141 C 59.847097,579.00265 32.006551,564.76245 1.4347929,540.08046 -24.519025,519.12703 -18.992258,520.00775 23.656644,543.62147 c 44.302121,24.52964 54.052565,27.52273 93.419976,28.67846 28.83921,0.84657 35.45735,0.18912 54.40113,-5.41461 11.86228,-3.50791 22.20478,-5.74136 22.98332,-4.96256 3.64003,3.63977 0.10769,6.72059 -16.31448,14.23232 -16.36255,7.4839 -20.26184,8.16526 -50.56331,8.83427 -18.05832,0.39873 -35.788315,0.1576 -39.39998,-0.53794 z M 0.19001624,574.31668 c -1.44466594,-0.47542 -14.44665924,-4.04953 -28.89331824,-7.94251 -32.16273,-8.66721 -133.186908,-41.01984 -131.950008,-42.25674 1.19434,-1.19461 93.000501,20.00284 132.24971,30.53551 32.4689983,8.71317 45.666941,14.02613 45.666941,18.38377 0,2.38711 -11.1659544,3.22423 -17.07332476,1.27997 z M 214.26324,566.35762 c 0,-0.67479 4.30431,-3.3046 9.565,-5.84433 l 9.565,-4.61715 -0.47884,-28.89332 c -0.95191,-57.4126 18.94403,-107.79099 55.78774,-141.26022 6.01034,-5.46005 16.83772,-13.1349 24.06105,-17.05546 11.35665,-6.16374 16.15399,-7.12825 35.45998,-7.12877 25.22649,-7.9e-4 36.47755,4.85959 48.87489,21.11313 9.8689,12.93869 5.28616,16.39302 -7.01031,5.2838 -15.06078,-13.60639 -27.07435,-17.92331 -45.92304,-16.5015 -8.7334,0.65877 -19.3714,3.02566 -23.63999,5.25964 -13.91213,7.28111 -29.55445,22.69386 -41.30668,40.70018 -21.74353,33.31478 -30.67551,63.20203 -33.08941,110.72103 -1.6267,32.02326 -1.78509,32.68491 -8.22541,34.37149 -12.3884,3.24472 -23.63998,5.07787 -23.63998,3.85148 z m 82.73995,-1.54684 c -20.71467,-12.03197 -29.23925,-32.95467 -26.72264,-65.58967 1.94321,-25.19787 11.3162,-50.57828 26.57529,-71.96223 10.9918,-15.40355 23.95466,-27.04467 26.86947,-24.1296 0.72207,0.72181 -3.60247,7.53092 -9.61018,15.13117 -21.0543,26.6357 -31.59616,56.43128 -31.50081,89.03398 0.0709,23.95203 6.27221,39.74013 17.99213,45.80063 9.94666,5.1438 11.85546,5.12699 23.08471,-0.20225 11.55077,-5.48106 22.08553,-23.41173 32.1869,-54.78383 13.13385,-40.79054 13.01171,-67.90534 -0.42631,-94.55995 l -5.29693,-10.50667 5.60399,5.00669 c 8.66143,7.73789 18.1584,30.27495 20.06142,47.607 3.46667,31.57619 -13.42988,85.43912 -33.89213,108.04026 -10.15968,11.2219 -12.1654,12.26416 -25.35205,13.17561 -7.99741,0.55292 -16.63887,-0.35748 -19.57286,-2.06167 z m 925.89951,-10.55447 c -44.5099,-4.59981 -86.361,-31.01829 -103.8678,-65.56629 -13.604,-26.84636 -14.3321,-34.51754 -14.3321,-151.00489 0,-105.38497 0.1366,-108.2743 5.444,-115.02141 7.0502,-8.96297 22.7561,-9.68741 30.2658,-1.39634 4.7125,5.2029 5.0799,12.12049 6.3168,118.85661 1.265,109.1474 1.523,113.78556 6.9893,125.61344 8.4705,18.32808 24.7968,34.50414 43.5809,43.17949 15.0072,6.93124 18.8799,7.57031 45.3031,7.47601 23.8974,-0.084 31.0372,-1.08507 41.2904,-5.78234 16.6152,-7.61207 35.1133,-25.1075 43.6547,-41.28908 l 6.9882,-13.23865 1.3299,-112.94661 c 0.7313,-62.12064 2.348,-115.04794 3.5925,-117.6163 5.1065,-10.53975 24.392,-13.29591 32.9751,-4.71302 2.7851,2.78505 5.8575,10.35589 6.8275,16.82379 0.9698,6.46816 1.2564,57.08374 0.6367,112.47932 -1.0396,92.96321 -1.5442,101.98318 -6.5503,117.13115 -19.9301,60.3043 -78.8964,94.40971 -150.4447,87.01512 z m 655.353,-0.0525 c -37.5784,-3.45328 -64.9091,-16.02844 -92.7404,-42.67097 -37.4305,-35.83191 -55.8017,-89.46317 -50.2145,-146.5934 4.319,-44.1637 18.7126,-76.24632 47.0102,-104.78267 32.3159,-32.58878 68.8959,-46.95033 119.5847,-46.95033 49.9542,0 87.4745,14.47923 118.2162,45.62018 52.3574,53.03737 64.4308,138.37641 29.809,210.6977 -11.7454,24.53516 -44.0702,57.29677 -67.9119,68.83019 -30.3283,14.67098 -62.7242,19.61988 -103.7533,15.8493 z m 57.695,-40.42202 c 56.7349,-14.77761 90.7799,-63.0313 90.673,-128.51538 -0.1339,-82.09695 -47.727,-132.75114 -124.728,-132.75114 -38.5518,0 -67.6437,11.41155 -90.3812,35.45316 -23.8477,25.21546 -34.3854,54.59839 -34.3854,95.88011 0,66.61355 33.1333,114.62321 89.5816,129.80297 18.7946,5.05423 50.1097,5.11333 69.24,0.13134 z m 336.3048,40.75981 c -23.0211,-2.35297 -56.8607,-13.55097 -74.3905,-24.61711 -41.1975,-26.00661 -65.3554,-67.79686 -71.2675,-123.28385 -8.8847,-83.38769 29.109,-154.27272 97.0647,-181.09518 42.5407,-16.79096 98.242,-16.9525 141.84,-0.4116 41.7337,15.8338 53.8403,27.8156 42.9325,42.48999 -7.3095,9.83345 -18.193,10.50798 -34.6867,2.15019 -7.2532,-3.67549 -22.4151,-9.21434 -33.6935,-12.30855 -17.2903,-4.7435 -25.0379,-5.4041 -49.4057,-4.21265 -32.1638,1.57232 -51.8194,7.12956 -70.3755,19.89673 -34.4301,23.68832 -51.9053,60.90134 -52.044,110.82531 -0.081,29.17595 3.1775,44.84611 13.9949,67.30252 16.6061,34.47288 48.5129,56.31571 91.7455,62.80672 36.6977,5.50996 66.5221,0.67663 104.6658,-16.96143 15.3413,-7.09383 19.8812,-6.95199 27.6995,0.86628 13.5336,13.53389 4.2289,26.88655 -28.0825,40.29987 -37.7475,15.6699 -67.3248,20.2051 -105.997,16.25276 z M 744.22659,550.53196 c -7.76967,-4.28277 -11.35271,-13.45115 -8.93906,-22.87352 4.02405,-15.70772 125.63839,-297.66659 130.72467,-303.08067 12.5678,-13.37813 36.96033,-12.51606 47.2784,1.67082 7.70847,10.59886 129.1565,300.05475 129.2043,307.94236 0.089,14.75425 -15.9091,23.59534 -29.748,16.43899 -4.3214,-2.23477 -7.8684,-4.32822 -7.8818,-4.65235 0,-0.32413 -7.61315,-18.31915 -16.88817,-39.98914 l -16.86345,-39.39998 -82.3801,-0.69292 -82.38037,-0.69291 -16.46368,39.17277 c -9.05516,21.54523 -18.46099,40.97231 -20.90169,43.17161 -6.84115,6.164 -16.81249,7.36596 -24.76105,2.98494 z M 952.8621,427.12046 c 1.17989,-1.1799 -57.7299,-146.30684 -62.56297,-154.12668 -1.07142,-1.73386 -2.61169,-1.15495 -4.12544,1.54999 -7.13586,12.75089 -62.23621,149.67186 -61.02216,151.63634 1.50271,2.43124 125.30796,3.3427 127.71057,0.94035 z m 610.1026,125.0185 c -11.9416,-4.96703 -11.7693,-2.80187 -11.9087,-149.73779 -0.074,-76.87067 -0.7799,-141.45118 -1.5708,-143.51206 -1.1796,-3.07451 -10.9829,-3.7472 -54.5965,-3.7472 -48.8849,0 -53.5215,-0.40109 -57.6737,-4.98935 -6.5202,-7.20468 -6.1603,-20.4633 0.7425,-27.36644 l 5.7312,-5.73086 h 127.5477 127.5477 l 6.5312,7.5929 c 7.1175,8.27479 6.7602,17.25142 -1.0312,25.89708 -3.6866,4.09077 -10.0121,4.59667 -57.4956,4.59667 h -53.3534 l -0.7428,143.08208 c -0.7223,139.10005 -0.8891,143.22549 -5.9964,148.24085 -6.3728,6.25855 -16.5026,8.6806 -23.7312,5.67412 z m 931.2441,0.63381 c -2.167,-0.82687 -6.0085,-3.30513 -8.5367,-5.50759 -4.282,-3.73013 -4.5967,-14.76632 -4.5967,-161.19714 0,-152.18741 0.1629,-157.35564 5.1068,-162.29981 2.8087,-2.80869 9.5143,-5.93364 14.9011,-6.94412 13.0663,-2.4512 140.972,0.76148 156.015,3.91873 26.8776,5.64129 42.8464,13.78211 59.2967,30.22897 19.4927,19.48881 25.777,35.22516 25.7912,64.5834 0.026,34.37438 -16.3555,61.09177 -48.0436,78.40123 l -14.1393,7.72371 11.5127,5.1241 c 17.5655,7.81801 32.4403,25.73134 38.9989,46.96504 10.173,32.93733 13.6261,74.97737 7.2015,87.67914 -1.8269,3.61167 -6.7742,8.22199 -10.9942,10.24531 -6.8419,3.2807 -8.6806,3.1386 -16.9837,-1.31333 l -9.311,-4.99198 -3.0856,-35.9186 c -3.4977,-40.71568 -8.3741,-55.21434 -23.947,-71.19786 -15.1341,-15.53279 -26.2719,-17.65014 -92.8456,-17.65014 h -57.1727 l -0.7938,60.34553 c -0.7407,56.29916 -1.1463,60.6912 -6.0474,65.50089 -5.7968,5.68883 -16.2239,8.63306 -22.3266,6.30452 z m 140.5265,-174.28371 c 22.2061,-3.17459 43.8551,-13.55622 54.0432,-25.91599 20.4202,-24.7734 12.8567,-69.43826 -14.1223,-83.39663 -18.3643,-9.50117 -33.4548,-11.34509 -93.1108,-11.37687 l -58.4433,-0.0315 v 61.72663 61.72664 l 46.6233,-0.0525 c 25.6428,-0.0289 54.8973,-1.23506 65.0099,-2.68078 z m 870.9778,173.23147 c -13.5835,-5.43588 -13.1984,-0.60229 -13.288,-166.86128 -0.081,-153.17451 0,-155.36935 5.3605,-162.19658 7.6906,-9.77698 23.448,-9.77698 31.1386,0 5.3684,6.8246 5.444,9.08379 5.444,162.35812 0,152.79601 -0.092,155.53457 -5.3558,161.18558 -2.9455,3.16172 -6.3948,5.74872 -7.6651,5.74872 -1.2703,0 -3.8835,0.51693 -5.8076,1.14891 -1.924,0.63197 -6.346,0 -9.8266,-1.38347 z m 215.3866,0 c -13.5308,-5.41487 -13.1988,-1.56313 -13.2881,-154.08203 l -0.084,-142.49659 h -53.8467 c -50.3445,0 -54.1883,-0.34173 -59.0999,-5.25333 -9.9984,-9.9984 -5.6857,-26.39746 8.2164,-31.24392 11.5548,-4.02799 239.9323,-4.02799 251.487,0 14.3489,5.00222 18.1192,20.70679 7.3904,30.78583 -5.827,5.47449 -8.2775,5.71142 -59.1,5.71142 h -53.0206 v 142.65787 c 0,139.93586 -0.1024,142.76767 -5.3557,148.40659 -2.9456,3.16172 -6.3949,5.74872 -7.6652,5.74872 -1.2702,0 -3.8835,0.51693 -5.8075,1.14891 -1.9241,0.63197 -6.3461,0 -9.8266,-1.38347 z m -884.6147,-2.37135 c -14.4316,-5.92865 -14.1288,-2.12524 -13.3489,-167.69 l 0.7192,-152.64077 5.9798,-5.98171 c 5.9741,-5.97592 6.07,-5.98223 102.4399,-6.78494 53.0532,-0.4418 100.3676,-0.0814 105.1434,0.80324 16.5424,3.06059 24.2782,19.21143 15.171,31.67469 -3.5312,4.83254 -8.5025,5.16744 -95.2166,6.41222 l -91.4909,1.31333 v 53.84664 53.84664 l 82.1447,0.69397 82.1448,0.69422 5.1632,8.49044 c 5.6862,9.35014 4.8517,16.09357 -3.003,24.26802 -4.8003,4.99539 -9.0402,5.29221 -86.4055,6.05 l -81.3575,0.79667 v 53.6084 53.6084 l 90.8545,0.7549 90.8545,0.7549 5.0187,6.20077 c 6.3852,7.88919 6.3849,16.48259 -5e-4,24.37152 l -5.019,6.20103 -102.0176,0.5361 c -56.1095,0.29498 -104.608,-0.52796 -107.7742,-1.82868 z m 307.3199,0.10244 c -14.4441,-6.19263 -14.1289,-2.22925 -13.349,-167.79322 l 0.7192,-152.64078 5.9964,-5.98144 c 5.9336,-5.91893 6.6925,-5.97961 72.2333,-5.7897 53.1745,0.15498 69.604,1.06617 83.3102,4.62346 56.7042,14.71747 99.1542,55.02128 117.1325,111.21091 6.3644,19.89095 7.7476,69.35316 2.5562,91.40769 -14.252,60.54858 -56.3391,104.59828 -115.7487,121.14627 -12.2531,3.41309 -30.3719,4.60087 -81.4266,5.33738 -37.4868,0.54083 -68.137,-0.11294 -71.4235,-1.52057 z m 146.5369,-43.88895 c 55.0347,-19.35564 84.0814,-61.39515 84.0977,-121.71495 0.026,-52.09702 -22.878,-91.26427 -65.9645,-112.86124 -23.5854,-11.82236 -39.0872,-14.32767 -89.3066,-14.43431 l -45.9667,-0.0972 -0.6819,128.32442 -0.6816,128.32442 51.9016,-1.18541 c 42.7755,-0.97686 54.4868,-2.0945 66.602,-6.35522 z M 80.149907,544.21011 c -12.84597,-3.89797 -18.700282,-8.49228 -22.544406,-17.6927 -5.142748,-12.30829 -2.776911,-21.50503 9.84658,-38.2797 l 10.36272,-13.77003 -14.61713,-1.63379 c -8.039435,-0.89858 -15.250419,-2.26707 -16.024497,-3.04089 -2.158068,-2.15833 36.322316,-5.23284 68.589066,-5.48054 30.90429,-0.2364 38.96658,2.08952 50.2573,14.50208 10.43364,11.47065 14.98644,23.85722 15.20261,41.36079 0.30679,24.81096 -4.60349,23.35815 -12.89167,-3.81444 C 158.0019,482.49844 148.1963,475.7797 109.19662,475.84142 l -19.699988,0.0315 -10.115288,16.99085 c -17.529314,29.44413 -12.649495,42.03847 17.493329,45.14949 16.568217,1.70996 19.274737,4.5394 6.740287,7.04629 -9.948234,1.9897 -14.673342,1.8187 -23.465053,-0.8492 z M -94.060515,520.13935 c -15.344195,-3.60221 -39.164105,-17.21149 -52.514915,-30.00388 -9.96557,-9.54871 -25.28113,-33.48998 -25.28113,-39.51975 0,-0.93483 6.79649,5.27487 15.10332,13.79971 25.99795,26.67956 53.93306,41.39414 84.107665,44.30317 29.747248,2.8678 37.375609,4.19426 37.375609,6.49969 0,6.70745 -37.729158,9.86523 -58.790549,4.92106 z m -84.700765,-8.24169 c 3.57279,-4.69517 7.30975,-11.79846 8.30473,-15.78495 2.19904,-8.81193 5.95675,-11.61853 8.09538,-6.04579 3.79448,9.8886 -8.81824,30.3674 -18.70291,30.3674 -3.36712,0 -2.91376,-1.68133 2.3028,-8.53666 z m 177.6379636,7.28978 c 0,-0.95164 3.0028038,-5.66703 6.6727806,-10.47882 C 20.576354,489.00732 19.170037,462.7081 2.0780633,443.78901 -18.368162,421.15766 -48.303217,412.88656 -124.90177,408.70438 c -18.2372,-0.99577 -34.67119,-2.74539 -36.5201,-3.88799 -5.71563,-3.5326 28.13106,-5.76054 71.09122,-4.6794 46.213287,1.16256 60.020879,4.77501 86.0267045,22.50605 22.6339755,15.43193 30.4648525,28.15365 31.5987845,51.33345 0.800082,16.35625 0.102439,20.08664 -5.219447,27.92907 -5.61082,8.2669 -23.1987084,21.36897 -23.1987084,17.28188 z M 413.8898,502.56223 c 0,-1.03255 2.52974,-3.45748 5.62133,-5.38808 24.77392,-15.47159 134.86193,-71.82748 152.39492,-78.01354 11.25316,-3.9702 16.35494,-0.58916 8.38353,5.55619 -16.80593,12.95602 -166.39978,82.93932 -166.39978,77.84543 z m 3.51474,-41.96466 c 7.60183,-8.56792 39.39026,-29.00863 66.86991,-42.9993 40.31196,-20.52397 97.72194,-37.0457 97.72194,-28.12292 0,2.41811 -6.64993,5.3978 -19.04333,8.53351 -39.82314,10.07589 -99.65647,35.59972 -126.7148,54.05415 -5.79049,3.94919 -13.48346,8.70923 -17.09513,10.57811 -6.50493,3.3658 -6.52122,3.34663 -1.73859,-2.04355 z m 201.57267,-27.47518 c -9.96951,-5.18609 -9.41686,-8.97505 1.1292,-7.74394 13.39889,1.56418 25.60185,-11.95237 33.11122,-36.67612 4.9032,-16.14191 5.46294,-23.08051 4.44274,-55.05281 -0.73546,-23.04662 -2.31015,-37.72548 -4.25546,-39.67079 -5.65705,-5.65678 -16.75418,0.89307 -23.2213,13.70594 -6.57349,13.02406 -14.04057,59.78028 -14.04057,87.91817 0,18.15236 -3.66578,24.28221 -7.88473,13.18507 -3.81969,-10.04621 -3.1231,-54.97821 1.16572,-75.21325 5.89896,-27.82978 13.4023,-42.7432 24.06314,-47.82711 5.58639,-2.66396 11.8087,-3.71568 15.90341,-2.68787 6.46002,1.62118 6.65308,1.33566 4.86879,-7.2052 -1.02178,-4.89138 -4.77213,-13.95994 -8.33362,-20.1523 -6.75868,-11.75013 -27.9162,-29.27708 -35.47785,-29.3895 -2.40996,-0.0368 -6.54696,-0.89701 -9.19333,-1.91405 -4.20371,-1.6154 -3.98202,-2.04932 1.75514,-3.43489 20.0341,-4.83806 44.11012,9.36879 56.21826,33.17294 6.85349,13.47427 8.19283,19.81977 10.4691,49.59775 1.43573,18.78066 2.40576,42.42064 2.15596,52.53331 -0.49066,19.84419 -7.7962,47.44624 -16.12588,60.92707 -9.12425,14.76685 -25.41141,21.82576 -36.74994,15.92758 z M 60.603314,420.90104 c -7.145055,-1.83893 -24.953316,-10.06197 -24.953316,-11.52239 0,-0.33044 11.524489,-0.72391 25.609982,-0.87442 31.29593,-0.33464 42.47318,-4.23891 103.69287,-36.21961 40.19244,-20.99625 94.54944,-46.22354 99.59711,-46.22354 6.23386,0 -0.0762,5.40489 -23.3634,20.00837 -46.7163,29.29756 -106.54149,60.98407 -131.11631,69.44561 -16.539322,5.69514 -38.833932,8.12244 -49.466936,5.38598 z m -245.593204,-20.6934 c 0,-5.69014 2.90457,-15.94096 6.55589,-23.13829 3.60563,-7.10697 6.56063,-14.43852 6.56667,-16.29242 0.0263,-7.62416 14.47345,-31.0984 26.12954,-42.4519 13.59457,-13.24128 45.946417,-30.89563 60.561183,-33.04818 8.606794,-1.26736 8.481765,-1.11659 -1.960281,2.3619 -14.261742,4.75111 -33.838282,17.31183 -44.302392,28.42525 -9.20042,9.77145 -22.39284,28.89699 -20.93662,30.35295 0.52507,0.52507 8.76361,-3.82495 18.30786,-9.66665 57.857292,-35.4127 142.7878893,-67.85491 209.648074,-80.0823 33.031626,-6.0408 44.123246,-6.06208 44.123246,-0.084 0,4.18743 -2.95421,5.17164 -31.51998,10.50036 -57.954739,10.81135 -105.409651,25.73554 -157.337249,49.48164 -39.389731,18.01236 -68.483471,34.8372 -87.500001,50.6014 -11.44963,9.49093 -23.08261,27.39638 -23.08261,35.52853 0,2.46513 -1.182,5.21262 -2.62666,6.10569 -1.57889,0.9758 -2.62667,-2.45121 -2.62667,-8.5934 z m 816.51915,-5.19659 c -2.06036,-5.18451 -2.08558,-15.00824 -0.0893,-34.80332 3.54678,-35.17892 7.68352,-48.31251 15.56903,-49.43279 3.24945,-0.4615 5.9079,0.4946 5.9079,2.12498 0,1.63037 -1.04804,2.31671 -2.32907,1.52504 -6.30426,-3.8964 -8.87576,7.989 -10.19014,47.09663 -0.75254,22.39206 -2.40997,40.71279 -3.68285,40.71279 -1.27288,0 -3.60641,-3.2505 -5.18504,-7.22333 z m -582.74594,3.38104 c 0,-0.66848 7.049969,-6.00298 15.666482,-11.8544 22.50238,-15.28089 68.881668,-38.04121 93.340128,-45.80563 24.39936,-7.74577 59.26913,-15.37755 61.2428,-13.40387 1.98051,1.98024 1.18962,2.36032 -21.84282,10.49011 -40.42884,14.27015 -86.69887,33.41749 -114.893493,47.54422 C 55.712726,398.68208 48.78332,401.37625 48.78332,398.39209 Z M 9.4989182,378.31229 C -5.4449689,372.34555 -51.929065,362.42753 -81.236609,358.95245 l -31.519981,-3.73722 35.459979,1.1489 c 19.50299,0.63198 42.580609,2.73489 51.283539,4.67363 19.8906861,4.4304 51.156409,15.5475 51.156409,18.18966 0,2.69023 -7.749451,2.23687 -15.6444188,-0.91513 z M 399.71789,344.68834 c 6.11803,-5.46083 80.23202,-29.95527 116.11831,-38.37663 33.74635,-7.91913 29.25921,-2.47957 -8.69978,10.54712 -25.17816,8.64041 -110.76096,30.81288 -107.41853,27.82951 z M 132.83661,287.85913 c 12.47535,-5.72351 46.9787,-16.95802 52.08073,-16.95802 2.54892,0 3.17485,0.90804 1.63458,2.37241 -2.87909,2.73751 -40.11102,14.59401 -53.71531,17.10589 l -9.19333,1.69735 z M 298.31653,271.13541 C 235.81292,263.3153 148.02924,250.16333 146.189,248.34331 c -4.36736,-4.31902 82.99422,1.87071 173.31079,12.2794 31.75534,3.65973 55.88257,5.07708 70.09336,4.1173 16.70611,-1.12816 21.66999,-0.68661 21.66999,1.92718 0,5.78996 -13.60114,10.18857 -34.14665,11.04303 -11.09267,0.4615 -45.52169,-2.41128 -78.79996,-6.57481 z m 132.81628,-5.48763 c 7.69061,-29.35167 21.41468,-55.95375 37.3869,-72.46917 14.56302,-15.05815 14.55278,-10.02966 -0.0263,11.3992 -7.61576,11.19616 -19.52532,30.99465 -26.4655,43.99665 -6.94043,13.00199 -11.84468,20.68499 -10.89829,17.07332 z m 28.72363,0.33254 c -10.25975,-1.7378 -10.10451,-1.82475 6.61185,-3.69336 34.72162,-3.88142 66.23163,-15.58164 93.72678,-34.802 9.44181,-6.60028 17.83742,-11.33012 18.65694,-10.5106 2.55653,2.55653 -17.13926,20.85441 -32.41043,30.10973 -26.04496,15.78494 -60.52756,23.31034 -86.58514,18.89623 z m -44.70847,-18.7192 c 6.26565,-22.47795 30.57912,-63.21043 39.85545,-66.77009 7.65515,-2.93766 6.9759,0.61017 -2.61984,13.6823 -5.17821,7.05417 -16.08648,23.36209 -24.2407,36.2401 -8.15396,12.87775 -14.00171,20.45936 -12.99491,16.84769 z m 84.10845,-7.87999 c -9.43787,-9.85105 -19.16493,-10.20118 -30.00492,-1.08009 -9.07854,7.63913 -9.84605,6.8577 -4.12623,-4.20292 5.80703,-11.22952 22.22159,-15.76131 34.03896,-9.39716 8.75257,4.71355 15.87241,15.65098 13.10391,20.13024 -2.44569,3.95733 -5.03979,2.87068 -13.01172,-5.45007 z m -355.91315,-8.97742 c 0,-2.46328 39.18328,-25.41115 59.1307,-34.63022 29.81922,-13.78158 59.90977,-23.48895 98.13275,-31.65867 29.82421,-6.37465 38.60094,-7.09593 87.01643,-7.14952 60.90449,-0.0683 86.29672,3.38157 136.1574,18.49619 43.5664,13.20687 65.24795,23.61661 60.03874,28.82581 -1.58466,1.58467 -10.06485,-0.87573 -45.54769,-13.21475 -115.57433,-40.19034 -256.86975,-28.9272 -373.64078,29.78402 -11.7081,5.88662 -21.28755,10.1828 -21.28755,9.54714 z"
           id="path856" />
        <path
           d="m 53.158665,-132.11409 c -5.0755,-1.0063 -9.802,-5.7785 -11.2618,-11.3705 -0.5551,-2.1264 -0.5953,-9.2866 -0.6139,-109.3612 l -0.02,-107.0859 -104.324895,-0.091 -104.32501,-0.091 -2.2991,-0.7811 c -4.5653,-1.551 -7.9807,-4.5178 -9.875,-8.5778 -0.8327,-1.7847 -0.9571,-2.4757 -0.9602,-5.3347 0,-2.9738 0.099,-3.497 1.078,-5.5317 1.6703,-3.471 4.7989,-6.3189 8.8189,-8.0279 l 1.8545,-0.7883 104.93001,-0.1729 104.929995,-0.1729 0.1728,-101.8184 0.1729,-101.8184 0.7591,-1.9875 c 2.7975,-7.3242 9.2106,-11.4651 15.9411,-10.2931 5.2311,0.911 9.421,4.6345 11.5823,10.2931 l 0.7591,1.9875 0.1729,101.8184 0.1728,101.8184 104.929995,0.1729 104.93,0.1729 1.9596,0.7417 c 5.5732,2.1097 9.5418,6.9181 10.1781,12.3322 0.7531,6.4072 -3.8314,12.7849 -10.9276,15.2022 l -2.2473,0.7654 -104.4978,0.091 -104.497795,0.091 v 106.5902 c 0,75.0616 -0.1109,107.197 -0.3747,108.6417 -0.584,3.1968 -2.2193,6.2613 -4.6092,8.6373 -3.5876,3.5666 -7.7716,4.8874 -12.5078,3.9484 z m 190.355495,-31.5772 c -0.8572,-0.2481 -2.1796,-0.8469 -2.9387,-1.3307 -0.7592,-0.4838 -8.9734,-8.3898 -18.254,-17.5688 l -16.8738,-16.6892 1.228,-1.2575 1.228,-1.2576 -1.8763,-1.8529 -1.8763,-1.853 -3.2219,2.0868 c -7.2373,4.6874 -14.6163,7.6091 -23.1016,9.1468 -5.4661,0.9906 -16.6825,1.0815 -21.2625,0.1722 -13.9809,-2.7755 -23.9897,-7.9411 -33.4039,-17.24 -9.7292,-9.6099 -15.9816,-22.1193 -17.942,-35.8974 -0.5417,-3.8073 -0.5437,-12.8426 0,-16.5952 2.3666,-16.4444 10.846,-31.0652 23.6909,-40.8497 8.762,-6.6743 19.2181,-11.0181 29.9059,-12.4235 6.7676,-0.89 16.0258,-0.4289 22.2998,1.1106 10.2452,2.514 19.5173,7.3359 27.2586,14.1759 4.1411,3.6589 9.0433,9.5038 11.7491,14.0084 5.2864,8.8007 8.0587,17.6679 8.8481,28.3 0.9766,13.1539 -2.7611,27.3285 -10.0992,38.299 l -2.0598,3.0795 1.8452,1.8684 1.8452,1.8685 1.2361,-1.2071 1.2361,-1.207 16.9645,17.0257 c 19.515,19.5855 18.966,18.8825 18.966,24.2861 0,2.6497 -0.1371,3.4039 -0.9232,5.0811 -1.1812,2.5198 -3.5959,4.9301 -6.0775,6.0662 -2.312,1.0585 -5.9971,1.346 -8.3871,0.6544 z m -70.0745,-45.5374 c 17.3822,-2.6042 31.7638,-14.3816 37.3302,-30.5707 2.011,-5.8486 2.4954,-8.9023 2.4954,-15.7308 0,-6.4688 -0.3838,-9.1037 -2.1323,-14.6385 -3.3953,-10.7482 -11.1342,-20.2331 -21.2462,-26.0397 -10.6405,-6.11 -24.0031,-7.6176 -36.4333,-4.1105 -4.115,1.1611 -10.826,4.5367 -14.4056,7.2462 -9.4217,7.1313 -16.0784,17.9568 -18.0891,29.4178 -0.7109,4.0519 -0.7176,12.1609 -0.014,16.166 1.1067,6.2947 3.7706,12.974 7.2722,18.2344 2.2379,3.3618 7.1838,8.5049 10.8436,11.276 5.9299,4.4899 14.5021,7.9537 21.9985,8.8892 2.3565,0.2941 10.0661,0.2073 12.3801,-0.1394 z m -10.8243,-12.7654 c -0.5814,-0.5814 -0.6915,-1.1524 -0.6915,-3.5879 0,-1.9823 -0.1445,-3.0163 -0.4579,-3.2764 -0.2519,-0.2091 -1.6132,-0.6204 -3.0252,-0.9141 -3.4722,-0.7222 -5.7368,-1.4699 -7.4939,-2.4743 -1.2588,-0.7195 -1.4694,-1.0023 -1.4694,-1.9727 0,-1.1617 0.6514,-3.7539 1.5977,-6.3578 0.6395,-1.7598 0.8915,-1.7895 4.1069,-0.4852 3.4677,1.4066 7.2472,2.2598 9.9337,2.2424 6.8105,-0.044 9.6699,-6.1149 4.6749,-9.9248 -0.6497,-0.4955 -3.2541,-1.7705 -5.7877,-2.8332 -6.1712,-2.5887 -8.0869,-3.7084 -10.5798,-6.1839 -2.9499,-2.9292 -3.7082,-5.0072 -3.5399,-9.7004 0.1067,-2.9722 0.2669,-3.7543 1.1333,-5.5317 1.5071,-3.0919 3.9372,-5.27 7.9154,-7.0949 2.2061,-1.0119 3.4189,-1.7701 3.5674,-2.2301 0.1237,-0.3833 0.3171,-2.014 0.4297,-3.6238 l 0.2049,-2.9268 1.292,-0.3045 c 0.7283,-0.1716 2.3875,-0.1768 3.8031,-0.012 l 2.511,0.2926 0.2763,3.1116 c 0.1519,1.7114 0.4631,3.2882 0.6914,3.5041 0.2284,0.216 1.6542,0.6618 3.1684,0.9908 3.7134,0.8068 6.3682,1.8635 6.9631,2.7715 0.436,0.6654 0.3909,1.0994 -0.3977,3.8296 -1.0365,3.5882 -1.6989,4.7766 -2.5197,4.5206 -0.3166,-0.099 -1.6802,-0.5775 -3.0303,-1.0638 -4.5299,-1.6316 -9.5643,-1.9112 -11.995,-0.6662 -1.196,0.6127 -2.3154,2.3889 -2.3171,3.6765 0,2.4939 1.7866,4.0994 7.1805,6.4404 6.0775,2.6377 9.3601,4.5043 11.1897,6.363 3.4098,3.464 5.0697,9.0568 3.9628,13.3526 -0.8527,3.3094 -1.8776,5.1491 -4.1008,7.3602 -2.0511,2.04 -4.1436,3.3051 -6.7616,4.0881 -2.1587,0.6455 -2.4829,1.3039 -2.4829,5.0424 0,4.1576 -0.1093,4.2695 -4.1734,4.2695 -2.626,0 -3.1902,-0.1033 -3.7784,-0.6915 z m -335.7069,-284.7112 v -67.9366 h 90.40931 90.4091948 v 67.9366 67.9365 H -82.68223 -173.09154 Z m 173.55810476,0.1729 v -60.5033 H -82.68223 -165.83114 v 60.2728 c 0,33.15 0.1038,60.3765 0.2305,60.5032 0.1268,0.1268 37.5438,0.2305 83.14891,0.2305 H 0.46656476 Z m -150.73970476,18.8788 c 0,-13.683 0.046,-14.8061 0.6918,-16.8971 0.8519,-2.7578 3.5217,-6.9215 5.5622,-8.6742 1.6313,-1.4013 5.6454,-3.4638 7.4849,-3.8459 1.5419,-0.3203 1.6728,-0.717 0.6703,-2.0314 -2.9438,-3.8595 -4.0331,-11.2243 -2.356,-15.9298 3.3544,-9.4122 12.7139,-14.6785 22.1388,-12.4569 8.40911,1.9822 14.27121,9.3457 14.30241,17.9652 0.014,3.9938 -1.1291,7.8485 -3.0917,10.4215 -1.0019,1.3135 -0.8723,1.7078 0.6702,2.0398 1.7932,0.3858 5.1262,2.057 6.9972,3.5083 2.3474,1.8208 4.7201,5.3751 5.8299,8.7331 l 0.9119,2.759 v 14.5328 14.5329 h -29.90601 -29.9059 z m 52.55151,-2.6757 c 0,-11.3511 -0.098,-12.1133 -1.9361,-15.0388 -1.2611,-2.0071 -2.6859,-3.2064 -5.1705,-4.352 -1.6893,-0.7789 -1.8739,-0.7883 -15.53901,-0.7883 h -13.8293 l -1.943,0.9111 c -2.6337,1.2349 -4.5867,3.0825 -5.7392,5.4295 l -0.9611,1.957 -0.1042,11.1499 -0.1041,11.1499 h 22.6632 22.66331 z m -17.8505,-28.6507 c 7.1497,-3.6269 8.6491,-12.735 3.0227,-18.3614 -4.59641,-4.5963 -11.31891,-4.5303 -16.00641,0.1572 -4.8947,4.8947 -3.8406,13.804 2.0627,17.4339 2.4998,1.537 3.4762,1.7944 6.4717,1.7059 2.1445,-0.063 3.144,-0.2736 4.44931,-0.9356 z m 36.8658,42.5263 v -3.4573 h 3.6302 3.6302 v 3.4573 3.4574 h -3.6302 -3.6302 z m 14.8665,0 v -3.4573 h 3.8031 3.803 v 3.4573 3.4574 h -3.803 -3.8031 z m 15.212295,0 v -3.4573 h 3.6302 3.6302 v 3.4573 3.4574 h -3.6302 -3.6302 z m 26.2757,0 v -3.4573 h 3.803 3.8031 v 3.4573 3.4574 h -3.8031 -3.803 z m -56.354495,-18.8424 v -3.6302 h 14.8665 14.866495 v 3.6302 3.6302 h -14.866495 -14.8665 z m 49.094095,0 v -3.6302 h 7.4332 7.4333 v 3.6302 3.6302 h -7.4333 -7.4332 z m -49.094095,-19.0153 v -3.6302 h 5.5317 5.5317 v 3.6302 3.6302 h -5.5317 -5.5317 z m 22.4726,0 v -3.633 l 20.657595,0.089 20.6575,0.089 0.099,3.5438 0.099,3.5438 h -20.7561 -20.756095 v -3.6329 z m -22.4726,-18.6669 v -3.6302 h 13.1378 13.1379 v 3.6302 3.6302 h -13.1379 -13.1378 z m 37.684895,0 v -3.6302 h 13.1378 13.1379 v 3.6302 3.6302 h -13.1379 -13.1378 z"
           style="fill:#333333;fill-opacity:1;stroke-width:0.345733"
           id="path1720" />
        <path
           d="m 893.09501,-164.29619 c -70.46154,-7.4858 -128.18148,-60.7566 -149.69822,-138.159 -4.72973,-17.0143 -4.94575,-21.9441 -5.66502,-129.2819 -0.66554,-99.3408 -0.34891,-112.6373 2.88458,-121.104 5.16488,-13.5241 12.39491,-16.72 40.38459,-17.851 30.69495,-1.24 40.9482,2.4216 47.61174,17.003 4.49138,9.8283 4.72266,14.4342 5.95313,118.5688 1.37176,116.0687 0.95187,111.7489 13.23732,136.1967 8.36565,16.6474 15.24102,23.9383 29.40501,31.1827 11.65905,5.9633 16.65566,7.1358 33.88156,7.9513 11.91267,0.5638 23.3442,-0.08 27.8526,-1.5673 28.79121,-9.5021 48.85769,-38.3919 54.65427,-78.6867 1.2245,-8.5127 2.24757,-58.2621 2.27366,-110.5543 0.0531,-104.74 0.0287,-104.5551 14.02177,-114.8194 5.5063,-4.0393 9.4182,-4.5792 33.1663,-4.5792 22.854,0 28.0096,0.6567 34.1087,4.3454 14.0718,8.5107 14.1686,9.4936 13.3211,135.0611 l -0.7604,112.6572 -6.0183,19.4317 c -11.5156,37.1807 -29.4957,67.1847 -53.9576,90.0407 -27.6076,25.7952 -58.25016,39.7814 -96.50304,44.0468 -11.65176,1.2992 -21.97067,2.2272 -22.9305,2.0621 -0.96006,-0.1659 -8.71058,-1.0403 -17.22325,-1.9447 z m 784.93529,0.1349 c -25.1544,-2.8729 -42.8628,-8.2122 -66.3326,-20.0006 -50.8244,-25.5279 -89.5365,-72.2311 -105.4595,-127.2287 -4.4626,-15.4133 -5.0905,-22.3983 -5.0618,-56.2909 0.035,-42.3823 2.5837,-55.9748 16.7132,-89.1791 26.2334,-61.6475 83.8549,-106.2362 150.8433,-116.726 20.5469,-3.2176 59.9794,-1.1012 80.0521,4.2968 32.047,8.6177 69.172,31.109 94.3437,57.1563 55.6747,57.6103 70.3868,149.9047 36.4391,228.593 -19.0434,44.1411 -58.4224,85.1879 -99.6677,103.8897 -28.9336,13.119 -69.1214,19.2295 -101.8698,15.4895 z m 49.7494,-98.6953 c 35.3073,-11.1662 63.7505,-43.2745 70.8726,-80.0046 3.6907,-19.0346 1.661,-51.2395 -4.282,-67.9363 -9.5758,-26.9031 -30.6505,-49.1111 -59.3822,-62.5755 -11.4369,-5.3594 -15.2377,-5.9681 -37.2612,-5.9681 -24.1301,0 -24.7994,0.1393 -41.5149,8.6232 -46.064,23.3809 -69.1756,74.5014 -57.8487,127.9551 12.5502,59.2248 74.285,97.3421 129.4164,79.9062 z m -1355.39528,94.6088 c -25.51106,-10.2993 -40.6864,-23.1899 -43.22406,-36.7164 -1.88916,-10.0706 -2.22458,-9.3204 84.1141,-188.1446 46.49515,-96.3005 77.32188,-157.5931 81.59325,-162.2322 9.34537,-10.1495 22.08896,-15.6529 36.38076,-15.7117 13.83542,-0.057 23.49278,3.9938 33.03626,13.8562 6.95873,7.1911 158.46097,316.6482 165.5172,338.0842 6.37722,19.3726 -3.15809,32.9553 -33.26423,47.3833 -21.82916,10.4613 -37.0098,9.5756 -48.1435,-2.8089 -2.02514,-2.2527 -12.21581,-21.2592 -22.64594,-42.2368 l -18.96381,-38.1413 -76.8476,0.1239 -76.84782,0.1238 -19.89977,40.1842 c -12.96359,26.178 -21.93109,41.633 -25.72752,44.3411 -8.31412,5.93 -23.10407,6.729 -35.07732,1.8954 z m 194.57551,-168.0288 c 0,-0.9687 -8.29025,-18.6282 -18.42277,-39.243 l -18.42276,-37.4817 -18.06014,37.3554 c -9.93308,20.5457 -18.06015,38.2052 -18.06015,39.2433 0,1.0381 16.41731,1.8876 36.48291,1.8876 20.0656,0 36.48291,-0.7927 36.48291,-1.7616 z m 1530.07097,168.4502 c -29.173,-6.335 -58.7896,-19.1108 -84.0212,-36.2448 -58.8268,-39.9472 -89.5233,-104.5266 -85.569,-180.0203 3.8033,-72.6103 39.8866,-129.3972 103.2577,-162.5033 72.8163,-38.0409 145.1723,-37.0063 211.758,3.0272 22.2042,13.3496 29.2503,21.8714 29.2503,35.3751 0,17.979 -21.5084,48.3401 -39.6043,55.9053 -10.3793,4.3393 -18.6623,2.2748 -37.5188,-9.3509 -8.8231,-5.4399 -20.4718,-11.3946 -25.8861,-13.2329 -44.5346,-15.1198 -103.7198,5.4382 -128.7488,44.721 -20.7727,32.6027 -21.6649,84.8637 -2.0097,117.7458 21.6651,36.2444 68.8773,57.6021 112.7107,50.9874 15.2302,-2.2982 20.5421,-4.4825 53.3776,-21.9483 19.9639,-10.619 25.5577,-9.6994 41.9116,6.8911 21.5234,21.8344 30.4387,45.0294 22.4836,58.4962 -11.2327,19.0153 -61.6355,43.9745 -103.8069,51.4046 -17.8138,3.1387 -50.1178,2.5397 -67.5847,-1.2532 z m 447.5067,-5.9085 c -7.2966,-6.6297 -11.8024,-15.411 -29.6116,-57.7106 l -21.0053,-49.8909 -43.4383,-0.055 -43.4381,-0.055 -0.8599,43.6689 c -0.7097,36.0502 -1.5278,44.9162 -4.6901,50.8176 -5.9724,11.1455 -14.9337,14.608 -40.4841,15.6419 -18.9207,0.7657 -23.9085,0.2189 -32.4565,-3.5631 -19.4005,-8.5817 -18.153,4.8957 -18.153,-196.1142 0,-164.9379 0.264,-177.3698 3.9067,-184.0355 8.0168,-14.6686 9.398,-14.8893 97.7705,-15.6214 90.1167,-0.7462 98.8651,0.2561 127.4199,14.6014 53.87,27.0626 81.4836,71.4174 81.4836,130.8839 0,34.9464 -8.349,60.5687 -28.3169,86.9022 -6.2733,8.273 -11.4059,15.8504 -11.4059,16.8386 0,0.9883 8.0428,20.089 17.8731,42.4464 30.1983,68.6809 31.2979,73.8522 18.6757,87.8239 -9.9302,10.9915 -34.762,22.5316 -51.8095,24.0773 -12.3197,1.1173 -13.2117,0.8407 -21.4603,-6.6538 z m -45.4615,-208.5471 c 19.4474,-9.6912 28.8631,-28.0023 25.8967,-50.3634 -2.4864,-18.7438 -11.5147,-30.4347 -29.9465,-38.778 -8.7946,-3.9811 -14.507,-4.5098 -49.1967,-4.5527 l -39.2467,-0.049 v 49.7494 49.7494 h 40.471 c 39.1654,0 40.8434,-0.1857 52.0222,-5.7563 z m -1203.22,211.3641 c -11.6508,-2.0462 -17.5962,-6.2824 -23.2334,-16.5549 -3.2611,-5.9425 -3.7181,-22.3275 -4.3583,-156.2868 l -0.7152,-149.6484 -62.3007,-0.7054 c -67.7945,-0.7677 -69.126,-1.0027 -76.7828,-13.5603 -3.371,-5.5282 -4.2904,-11.0908 -4.2714,-25.839 0.029,-21.8584 2.5863,-28.364 13.2566,-33.7157 7.1391,-3.5807 20.3269,-3.8663 178.7328,-3.8694 184.3922,0 180.72,-0.2262 187.9768,11.3937 1.6366,2.6208 3.4608,12.3224 4.0536,21.5587 1.3991,21.802 -2.1251,32.6536 -12.5984,38.7913 -7.2112,4.2261 -11.9962,4.5885 -70.2019,5.3146 l -62.4632,0.7794 v 148.5531 148.5533 l -4.9749,9.8656 c -3.7542,7.445 -6.8738,10.4799 -12.7138,12.3695 -11.1838,3.6184 -36.97,5.1846 -49.4058,3.0007 z m 1394.547,0.077 c -6.2479,-0.9475 -14.4406,-3.5424 -18.2059,-5.7668 -14.2363,-8.4096 -13.689,-0.2328 -13.0368,-194.8077 0.6543,-195.1331 -0.1105,-185.2168 14.9638,-194.0479 7.5323,-4.4127 11.2363,-4.5502 138.8274,-5.1538 125.7327,-0.5946 131.4855,-0.4444 140.7997,3.6757 14.5726,6.4462 17.7022,13.9192 17.7022,42.2717 0,24.1248 -2.2368,32.0553 -11.3201,40.1377 -8.5463,7.6043 -20.3254,8.4812 -114.0973,8.4938 l -92.3128,0.022 v 28.5981 28.5982 l 66.8853,0.6987 c 73.2002,0.7646 76.4949,1.3247 85.106,14.4667 5.6922,8.6874 5.6847,56.6533 0,65.3446 -8.8605,13.5228 -9.5813,13.6513 -83.3343,14.8585 l -67.5415,1.1056 v 28.7441 28.7441 l 98.4941,1.1055 c 89.1412,1.0006 99.0575,1.4751 104.4278,4.9958 10.8164,7.0914 13.6994,15.7902 13.7335,41.437 0.035,26.5989 -3.2879,35.1994 -16.6305,43.0379 -7.4365,4.3687 -11.2502,4.5102 -130.3758,4.8366 -67.4933,0.1857 -127.827,-0.4392 -134.0749,-1.3866 z m 739.9123,0.21 c -14.662,-2.3599 -24.1334,-8.2193 -28.3656,-17.5474 -3.3529,-7.3903 -3.6952,-24.3224 -3.6952,-182.8203 0,-173.0614 0.042,-174.7575 4.6349,-183.52 6.7712,-12.921 19.5542,-17.2722 47.3256,-16.1093 23.1576,0.9697 32.7272,4.4823 39.226,14.3981 3.6149,5.5156 3.9362,18.222 4.5405,179.6047 0.4729,126.2457 -0.046,176.1921 -1.9018,182.9094 -2.8021,10.1455 -8.7596,16.8703 -18.0707,20.3977 -8.3829,3.176 -31.7346,4.6121 -43.6937,2.6871 z m 269.4578,-0.1946 c -5.6342,-1.0126 -12.6945,-3.4466 -15.6894,-5.4089 -11.8901,-7.7906 -11.6071,-3.9506 -12.2662,-166.42 l -0.6118,-150.7532 -62.5072,-0.7062 c -68.1498,-0.7699 -69.4919,-1.0149 -78.1729,-14.2637 -4.703,-7.1778 -5.4087,-38.3446 -1.1007,-48.61 5.6878,-13.5524 -2.2889,-13.0094 191.0593,-13.0094 h 176.7331 l 6.4517,7.221 c 4.7174,5.2798 6.5634,9.7376 6.867,16.5831 0.7635,17.2177 -0.8555,33.6286 -3.8992,39.5249 -5.2576,10.1852 -12.7131,11.3595 -78.879,12.4246 l -61.3576,0.9876 v 143.3823 c 0,97.192 -0.7951,147.0898 -2.468,154.8903 -2.8275,13.1849 -9.6319,20.7926 -20.2675,22.6603 -14.8969,2.6159 -34.0343,3.2689 -43.8916,1.4973 z m -668.295,-2.3577 c -8.9904,-2.6919 -16.4838,-10.4252 -19.0489,-19.6594 -1.3673,-4.9216 -2.1969,-73.3804 -2.1996,-181.4733 0,-168.2609 0.1283,-173.7866 4.3121,-180.6487 9.0829,-14.8963 9.9731,-15.0323 98.4828,-15.0323 87.2342,0 88.7077,0.1725 124.405,14.4651 22.9765,9.2004 44.7123,24.1088 65.8737,45.1827 39.1816,39.0192 56.6029,81.2828 56.5297,137.1388 -0.038,28.7439 -4.0133,51.2366 -13.3231,75.3774 -18.5696,48.1528 -65.3707,95.1941 -112.9267,113.5068 -31.5699,12.1567 -43.5951,13.4489 -123.2291,13.2402 -39.8785,-0.104 -75.3726,-1.0483 -78.8759,-2.0973 z m 158.9643,-97.2218 c 54.8086,-18.857 83.7077,-70.3634 70.6238,-125.872 -4.5303,-19.2201 -13.5763,-34.2469 -30.2611,-50.2684 -25.3148,-24.3084 -41.1992,-29.4802 -90.5433,-29.4802 h -34.9761 v 105.0266 105.0265 h 36.1367 c 30.4064,0 38.1799,-0.7029 49.02,-4.4325 z"
           style="fill:#333333;fill-opacity:1;stroke-width:2.21109"
           id="path2557" />
        <g
           id="g1495">
          <path
             d="m 454.65287,-654.4285 c -5.7143,-0.7809 -10.6101,-4.8477 -12.8243,-10.6529 -0.6386,-1.6744 -0.6625,-3.7313 -0.7604,-65.5164 -0.068,-42.8541 0.017,-64.6854 0.2594,-66.5228 1.0087,-7.6538 6.3168,-12.7986 14.1828,-13.7468 1.4514,-0.1749 18.0241,-0.2663 37.5189,-0.2069 38.4015,0.117 36.0422,-0.014 40.1496,2.2222 2.1355,1.1625 32.7611,31.5541 34.692,34.427 0.7328,1.0902 1.696,3.035 2.1404,4.3216 l 0.8079,2.3393 v 50.3042 c 0,56.4442 0.2058,51.9461 -2.5708,56.1956 -1.8817,2.8797 -4.7428,5.0764 -8.1966,6.293 -1.553,0.547 -5.5313,0.5949 -53.0204,0.638 -28.2377,0.026 -51.8081,-0.017 -52.3785,-0.095 z m 104.8115,-9.3009 c 0.7307,-0.5875 1.7175,-1.7543 2.1929,-2.593 l 0.8643,-1.5249 v -48.4026 -48.4027 l -15.2123,-0.1728 c -13.3318,-0.1515 -15.3725,-0.2455 -16.5086,-0.7602 -2.2711,-1.029 -3.6646,-2.3551 -4.7435,-4.5141 l -1.0476,-2.0965 v -15.1619 -15.1619 l -35.2056,0.091 -35.2056,0.091 -1.7014,1.0391 c -1.2437,0.7594 -1.934,1.5036 -2.5658,2.7658 l -0.8643,1.7269 v 64.1334 c 0,53.0948 0.081,64.3618 0.4688,65.4597 0.587,1.6608 2.3049,3.6454 3.6735,4.2441 0.8519,0.3727 10.5506,0.4429 52.7852,0.3819 l 51.7414,-0.075 z m -87.5016,-18.793 c -1.3217,-0.8713 -1.8974,-1.9541 -1.9126,-3.5969 -0.017,-1.8432 1.6576,-3.5308 3.8117,-3.8413 0.8442,-0.1217 15.9261,-0.1746 33.5153,-0.1175 34.7443,0.1129 32.8136,0 34.0144,2.0303 0.7013,1.1872 0.7149,2.8194 0.035,4.1352 -1.1208,2.1674 0.6712,2.0633 -35.5011,2.0608 -31.9864,0 -32.9778,-0.022 -33.9621,-0.6706 z m 0.8295,-27.2693 c -2.508,-1.1116 -3.4514,-3.5887 -2.2509,-5.9102 1.1357,-2.1962 -0.4215,-2.1038 35.4528,-2.1038 35.721,0 34.1019,-0.094 35.3664,2.0469 1.2161,2.0586 0.5358,4.5285 -1.5389,5.5869 -1.2567,0.6412 -2.4113,0.6629 -33.9001,0.6395 -17.9295,-0.014 -32.8377,-0.1301 -33.1293,-0.2593 z m -0.762,-27.9163 c -1.9424,-1.0539 -2.6103,-4.1116 -1.2703,-5.8151 1.6057,-2.0414 -0.2111,-1.9413 35.2282,-1.9413 27.3296,0 32.7151,0.079 33.7032,0.4914 2.8745,1.201 2.9992,5.8322 0.196,7.2818 -1.5151,0.7835 -66.4117,0.7674 -67.8571,-0.017 z"
             style="fill:#FFFFFF;fill-opacity:1;stroke-width:0.345733"
             id="path1097" />
          <path
             id="path1122"
             style="fill:#FFFFFF;fill-opacity:1;stroke-width:0.345733"
             d="m 449.46687,-796.8062 c -15.28003,0.005 -30.30898,0.18549 -32.60937,0.5586 -8.2008,1.3301 -15.09846,4.95153 -20.56836,10.79883 -3.2792,3.5054 -5.02138,6.50849 -9.48437,16.33789 l -4.0625,8.94726 -8.34376,0.11328 c -8.1651,0.1106 -8.38519,0.13313 -10.27539,1.01953 -4.8877,2.2921 -7.463,7.66374 -6.0332,12.58204 1.5266,5.2511 5.28852,8.04421 11.29492,8.38671 1.6865,0.0962 3.06641,0.27494 3.06641,0.39844 0,0.1234 -0.45673,1.54119 -1.01563,3.15039 -0.559,1.6091 -1.35854,4.48131 -1.77734,6.38282 -0.7247,3.29079 -0.77047,4.43178 -0.91797,23.67578 -0.1103,14.3818 -0.0421,20.59282 0.23438,21.51562 0.2424,0.8089 0.90486,1.71144 1.75976,2.39844 l 1.3711,1.10156 v 7.8086 c 0.003,7.4548 0.0407,7.88547 0.8125,9.54297 1.3183,2.8309 3.44185,4.61603 6.34765,5.33593 h 0.006 c 0.7192,0.1782 4.11994,0.29286 7.55664,0.25586 6.2157,-0.0674 6.25878,-0.0732 8.29688,-1.11523 1.5834,-0.8096 2.36294,-1.50404 3.43164,-3.05664 l 1.38476,-2.00977 0.10157,-9.47461 0.10156,-9.47656 h 49.32226 v -60.50195 h -4.87109 c -8.0212,9e-4 -16.13951,0.0989 -18.04101,0.21679 l -3.45704,0.21485 9.38282,-9.46485 c 9.868,-9.955 10.25727,-10.47621 9.45117,-12.60351 -0.834,-2.2009 -2.86369,-3.29921 -5.08789,-2.75391 -1.1796,0.2891 -22.99291,21.93226 -23.78321,23.59766 -0.3078,0.6487 -0.86318,1.19525 -1.30078,1.28125 -0.4196,0.0823 -5.11906,0.32401 -10.44336,0.53711 v 0.002 c -5.3243,0.213 -11.60367,0.48225 -13.95507,0.59766 -4.2744,0.20979 -4.27571,0.20873 -4.03711,-0.54297 0.8924,-2.8117 15.32596,-33.81047 16.63476,-35.72657 4.0355,-5.9075 10.7468,-10.17855 17.7793,-11.31445 1.40605,-0.22709 12.89408,-0.354 31.72851,-0.36133 z m -50.55468,71.40821 c 0.67695,0.008 1.35798,0.075 2.03906,0.20898 2.627,0.5168 3.69537,1.07132 5.73437,2.97852 3.413,3.1925 4.50372,8.23053 2.75782,12.74023 -1.0567,2.7296 -3.64923,5.3515 -6.23633,6.3086 -3.5145,1.3003 -6.20882,1.24132 -9.47852,-0.20508 -1.931,-0.8541 -4.24682,-3.20154 -5.35742,-5.43164 -1.2134,-2.4365 -1.39209,-6.52431 -0.40039,-9.13281 1.7395,-4.57582 6.20272,-7.52002 10.94141,-7.4668 z" />
        </g>
      </g>
      <path
         d="m 136.20136,2080.0076 c -34.71869,-8.4981 -54.365742,-30.432 -61.102853,-68.2144 -4.157233,-23.3144 -4.325693,-173.1179 -0.200547,-178.7587 3.876678,-5.3014 23.901819,-6.9957 29.87073,-2.5271 4.07406,3.05 4.26278,6.3296 5.38416,93.58 1.26978,98.8009 1.69409,102.2534 14.166,115.2712 12.73917,13.2969 54.64862,16.4833 74.4272,5.6588 20.4104,-11.1702 23.14523,-27.1629 23.16824,-135.4855 l 0.0211,-75.4204 5.31175,-3.4804 c 6.33834,-4.153 25.71729,-3.1309 28.65731,1.5115 1.01941,1.61 1.86804,41.213 1.88599,88.0067 0.0359,93.8336 -0.985,103.8876 -12.61356,124.2484 -14.25783,24.9642 -43.30674,38.8873 -80.23905,38.4585 -9.86902,-0.114 -22.79796,-1.3966 -28.73078,-2.8488 z m 549.56367,-0.2005 c -39.34478,-9.5323 -66.16424,-37.2488 -77.86626,-80.4709 -6.35734,-23.4813 -6.35734,-68.6181 0,-92.0994 14.69586,-54.2802 54.02186,-83.7779 111.69114,-83.7779 57.5061,0 97.02124,30.5971 111.77854,86.5518 5.04344,19.1229 5.0238,67.5544 -0.0359,86.5519 -12.25363,46.0164 -38.73512,73.6353 -79.90973,83.3422 -16.51557,3.8934 -49.38606,3.8446 -65.65865,-0.097 z m 69.19735,-35.1382 c 27.33413,-14.2652 41.25968,-45.4602 41.0908,-92.0477 -0.16888,-46.3212 -15.49278,-79.1442 -42.6918,-91.4382 -9.48524,-4.2875 -14.38069,-5.0016 -34.28635,-5.0023 -21.1406,-6e-4 -24.29595,0.5272 -35.2152,5.8894 -20.44882,10.0417 -32.2013,27.743 -38.59262,58.1261 -10.96127,52.1074 5.08882,107.6595 35.60954,123.2519 14.04124,7.1737 18.09883,7.8891 41.36481,7.2953 19.13302,-0.4885 23.60987,-1.3196 32.72082,-6.0745 z m 238.04438,35.2494 c -38.9192,-8.4555 -67.34726,-37.4524 -79.00115,-80.5816 -5.85217,-21.6583 -6.34446,-66.2071 -0.97529,-88.2703 11.12951,-45.7329 40.23859,-75.4869 82.5884,-84.4178 27.96388,-5.8971 63.54388,-2.7568 83.37138,7.3584 12.6169,6.4367 26.4885,19.8941 31.7856,30.8367 4.114,8.4984 4.244,9.8252 1.3897,14.1812 -3.7479,5.7203 -18.9388,13.0358 -23.4635,11.2995 -1.7573,-0.6743 -6.0171,-5.1216 -9.4661,-9.883 -8.462,-11.6811 -20.0916,-20.5915 -30.598,-23.4435 -4.9691,-1.3489 -17.0004,-1.9309 -28.1084,-1.3601 -22.80113,1.1718 -38.3089,7.4741 -49.35735,20.0574 -31.16816,35.4985 -30.05882,126.2855 1.92419,157.4448 12.10565,11.7939 25.70886,16.8478 48.16396,17.8941 30.445,1.4186 48.0623,-6.9181 64.2069,-30.3835 3.9536,-5.7464 8.0156,-9.3107 10.6107,-9.3107 6.2553,0 20.453,7.8406 23.0774,12.7445 5.2907,9.8852 -15.5867,36.0416 -37.7195,47.2571 -22.4327,11.3676 -59.1791,14.9316 -88.42894,8.5768 z m -1218.19123,-3.5587 c -1.39327,-1.3935 -2.53322,-4.1355 -2.53322,-6.0935 0,-3.6998 82.63527,-222.385 87.8535,-232.4951 4.42639,-8.5756 10.11242,-10.637 26.74705,-9.6972 12.79785,0.7232 15.289489,1.5296 18.194465,5.8885 3.244427,4.8682 87.1342731,222.9816 89.711407,233.2489 2.2007389,8.7692 -3.7282734,12.2587 -19.160045,11.2761 -7.338541,-0.4672 -14.377316,-1.8841 -15.641818,-3.1486 -1.264501,-1.2645 -7.324608,-15.469 -13.467044,-31.5657 l -11.167932,-29.2666 -51.026953,-0.5655 -51.02696,-0.5655 -3.86633,9.0096 c -2.12643,4.9554 -7.41137,18.2922 -11.74424,29.6374 -4.56234,11.9461 -9.75355,21.9416 -12.33406,23.749 -5.40696,3.7872 -26.92438,4.2014 -30.53782,0.5882 z m 145.894324,-96.157 c 0.49799,-0.8708 -5.589771,-18.6826 -13.528475,-39.5817 -7.938489,-20.8993 -16.099909,-44.4106 -18.136409,-52.2477 -2.0365,-7.8374 -4.29572,-14.2494 -5.02064,-14.2494 -0.72493,0 -3.45384,7.3622 -6.06433,16.3604 -2.61028,8.9982 -10.83144,32.2585 -18.26898,51.6898 -7.43755,19.4313 -13.52299,36.2929 -13.52299,37.4706 0,2.5048 73.11583,3.0517 74.541824,0.558 z m 501.766796,94.4681 c -4.10826,-4.1082 -4.22204,-7.0366 -4.22204,-108.7175 v -104.4955 h -38.63168 c -27.23216,0 -39.37919,-0.7475 -41.1649,-2.5333 -1.39327,-1.3934 -2.53322,-8.0664 -2.53322,-14.8295 0,-11.2565 0.45788,-12.47 5.41498,-14.3549 3.21276,-1.2214 42.22146,-2.0587 95.914,-2.0587 53.69254,0 92.70145,0.8373 95.914,2.0587 4.95731,1.8849 5.41498,3.0984 5.41498,14.3549 0,6.7631 -1.13995,13.4363 -2.53322,14.8295 -1.78572,1.7858 -13.93274,2.5333 -41.1649,2.5333 h -38.63167 v 104.4955 c 0,101.6809 -0.114,104.6091 -4.22204,108.7175 -3.09624,3.0963 -7.03667,4.2221 -14.77715,4.2221 -7.74048,0 -11.68091,-1.1258 -14.77714,-4.2221 z m 788.61685,0.9048 c -2.9372,-2.9375 -3.3172,-16.957 -3.3172,-122.3906 v -119.0732 l 5.2843,-3.4625 c 4.6679,-3.0584 11.7499,-3.3407 60.6918,-2.4186 69.609,1.3114 85.178,4.8566 104.005,23.6836 14.9825,14.9823 20.8758,34.5821 17.3715,57.7735 -2.2636,14.9811 -7.6729,25.0591 -19.1072,35.5988 -10.8108,9.9649 -17.4227,13.6203 -31.5568,17.4459 -5.5151,1.4927 -10.0274,3.0036 -10.0274,3.3574 0,0.354 4.9873,5.7227 11.0829,11.9306 14.5764,14.8449 57.5253,84.6395 57.5253,93.4819 v 6.335 l -14.9652,0.6134 c -11.9343,0.4892 -15.8661,-0.152 -19.4115,-3.1665 -2.4452,-2.0789 -13.1971,-18.8493 -23.8928,-37.2669 -21.4306,-36.9027 -37.1645,-55.9475 -50.6925,-61.3604 -4.7521,-1.9014 -17.5023,-4.0392 -28.3337,-4.7508 l -19.6937,-1.2939 -0.6686,51.1469 c -0.6244,47.7696 -0.9392,51.3444 -4.7665,54.14 -5.675,4.1457 -25.2731,3.931 -29.5277,-0.3236 z m 108.562,-138.2676 c 27.3225,-4.4327 38.337,-15.771 38.5622,-39.6956 0.2747,-29.1456 -14.1926,-36.0155 -76.0279,-36.1033 l -36.4151,-0.051 v 39.0539 39.0539 l 30.082,-0.021 c 16.5451,0 36.2547,-1.0173 43.7988,-2.2413 z m 176.1508,138.5883 c -3.9728,-2.9048 -4.0977,-6.6392 -4.0977,-122.3336 0,-95.0532 0.5579,-119.8957 2.742,-122.0816 3.9889,-3.9922 155.3217,-5.0321 162.9731,-1.1199 4.351,2.2246 5.3921,4.4888 5.93,12.8989 1.1974,18.718 3.2202,18.1975 -70.6945,18.1975 h -64.11 l 0.5789,35.3596 0.5788,35.3595 58.9332,0.5618 c 39.1708,0.3734 59.877,1.3449 61.7475,2.8974 4.0116,3.3293 3.6536,21.7876 -0.5032,25.9444 -2.8575,2.8573 -11.492,3.3173 -62.2753,3.3173 l -58.9577,2e-4 v 40.1094 40.1094 h 64.2487 c 36.6364,0 66.5759,0.8847 69.6637,2.0586 4.9807,1.8938 5.415,3.0728 5.415,14.7031 0,10.3402 -0.744,13.0421 -4.0834,14.8293 -2.6084,1.396 -32.96,2.1853 -84.0374,2.1853 -65.7201,0 -80.6834,-0.5335 -84.0517,-2.9966 z m 262.2943,-0.068 c -3.2683,-3.268 -3.57,-13.6353 -3.57,-122.6431 V 1834.112 l 5.3831,-3.5271 c 4.7853,-3.1355 10.7039,-3.3846 53.3033,-2.2447 54.3811,1.4553 69.8906,3.9989 92.6415,15.1939 34.2509,16.8535 53.4411,56.2648 53.4411,109.7532 0,51.3985 -18.6243,91.4701 -50.3797,108.3954 -23.9153,12.7468 -39.7488,15.4814 -96.4606,16.66 -45.754,0.9508 -51.1428,0.7015 -54.3587,-2.5145 z m 117.5621,-36.9608 c 32.3625,-12.5534 45.0977,-40.1932 43.0394,-93.4103 -1.5625,-40.4013 -11.0102,-61.4206 -32.8082,-72.9915 -15.8888,-8.4346 -31.1415,-11.0077 -65.2539,-11.0077 h -28.111 v 92.073 92.073 l 35.3596,-0.9607 c 30.3174,-0.8235 37.1299,-1.6472 47.7741,-5.7758 z m 173.506,36.7084 c -2.9373,-2.9382 -3.3173,-16.9577 -3.3173,-122.3913 v -119.0732 l 5.312,-3.4804 c 6.0242,-3.9474 24.7851,-3.2516 29.1165,1.0798 1.886,1.886 2.5144,32.3419 2.5144,121.8517 0,115.6944 -0.1245,119.4288 -4.0977,122.3336 -5.6738,4.1488 -25.2712,3.9358 -29.5279,-0.3209 z m 197.2297,-0.9055 c -4.1083,-4.1082 -4.222,-7.0366 -4.222,-108.7175 v -104.4955 h -38.6317 c -27.2322,0 -39.3792,-0.7475 -41.1649,-2.5333 -1.3933,-1.3934 -2.5332,-8.0664 -2.5332,-14.8295 0,-11.3509 0.4289,-12.459 5.5796,-14.4174 8.8965,-3.3825 191.8964,-1.6934 195.3912,1.8037 3.034,3.0358 3.81,24.3314 0.9897,27.1618 -0.9642,0.9675 -19.4884,2.2339 -41.1649,2.8147 l -39.412,1.0555 -0.5478,104.3515 c -0.6274,119.4707 0.6202,112.0281 -18.7786,112.0281 -8.4687,0 -12.3365,-1.0532 -15.5054,-4.2221 z m -321.9306,-415.0424 c -30.853,-6.8283 -62.0809,-23.6777 -88.5749,-47.791 l -12.5778,-11.4481 123.4064,-1.4939 c 67.8738,-0.8216 134.3312,-2.304 147.6834,-3.2941 13.3522,-0.9903 24.6124,-1.4853 25.0228,-1.0998 0.4104,0.3855 -3.6652,4.9881 -9.0569,10.2283 -20.5485,19.9707 -58.5361,41.3152 -90.9071,51.0789 -16.1141,4.8602 -23.6474,5.8336 -49.609,6.4103 -22.0504,0.4898 -34.7419,-0.2347 -45.3869,-2.5906 z m -649.1741,-12.6588 c 23.2197,-10.5392 30.0651,-14.5721 43.3943,-25.5667 35.4916,-29.2753 60.7601,-76.903 65.8379,-124.0964 2.4294,-22.579 4.3631,-5.0371 4.5877,41.6184 0.1921,40.0882 0.532,43.9016 4.0728,45.7964 2.1245,1.137 15.0782,3.0414 28.7861,4.2318 13.7079,1.1906 25.3084,2.5495 25.7785,3.0196 1.7084,1.7084 -10.6885,14.4212 -32.0293,32.8452 -18.7864,16.2189 -23.3719,19.1501 -33.0756,21.1427 -14.7943,3.0377 -66.4518,6.4669 -95.7065,6.3531 l -23.2213,-0.091 11.5754,-5.2539 z m -56.9623,-5.9438 c 0,-0.4872 4.9873,-2.5186 11.0828,-4.5139 38.0926,-12.4701 66.9433,-42.0144 83.8152,-85.8306 21.6181,-56.1411 27.7679,-146.1622 13.9897,-204.7863 -13.9433,-59.327 -46.8243,-97.8352 -92.5541,-108.3935 l -13.1671,-3.0398 17.0628,0.9736 c 39.5373,2.2564 73.0278,23.0924 97.2152,60.4824 27.5201,42.5413 42.2519,108.3346 36.6406,163.6387 -6.5761,64.8144 -26.1794,115.9231 -55.4682,144.6133 -21.0863,20.6553 -45.7939,32.0008 -77.6703,35.6655 -20.4385,2.3498 -20.9466,2.3787 -20.9466,1.1906 z m 548.8653,-65.9672 c -99.5268,-1.7098 -298.2217,-14.2258 -330.5708,-20.8227 -4.2332,-0.8636 -4.4762,-2.5586 -5.8083,-40.5259 -0.7644,-21.7933 -2.009,-43.8132 -2.7656,-48.9322 l -1.3755,-9.3077 31.4605,1.3916 c 17.3032,0.7654 59.1297,2.0149 92.9476,2.7768 l 61.4871,1.3853 3.3938,5.7449 c 1.8664,3.1598 9.0755,11.0054 16.0197,17.4347 20.698,19.1626 25.4632,20.2943 104.6017,24.8446 141.5596,8.1393 256.017,10.299 327.2082,6.1743 104.0366,-6.0278 173.508,-16.8757 202.3749,-31.6005 6.8108,-3.4741 13.2104,-5.8055 14.2213,-5.1806 3.5153,2.1726 10.8156,30.3989 9.3609,36.1943 -6.7394,26.8528 -50.294,40.905 -155.2379,50.0852 -64.4298,5.636 -248.5733,12.2652 -312.431,11.2477 -14.5133,-0.2314 -39.2122,-0.6409 -54.8866,-0.9098 z m -1185.33801,-2.2348 c -5.8053,-0.4255 -92.25159,-13.5039 -192.10286,-29.063 -99.85127,-15.5593 -186.56672,-28.9408 -192.70113,-29.7369 -6.13442,-0.7959 -10.7584,-1.8421 -10.27561,-2.3249 0.48279,-0.4828 59.17444,4.8402 130.42603,11.8287 206.86523,20.2901 404.00415,37.6068 528.53114,46.4264 l 54.88654,3.8872 -154.1045,-0.1224 c -84.75748,-0.068 -158.8543,-0.4701 -164.65961,-0.8957 z M 488.62104,1460.654 c -40.83114,-0.7401 -74.73772,-1.8454 -75.34781,-2.4564 -0.61029,-0.6105 20.92254,-4.2334 47.85072,-8.0508 l 48.96004,-6.9408 182.08566,6.468 c 100.14703,3.5573 194.66797,6.6345 210.04655,6.8382 l 27.96089,0.3703 -20.0547,1.5151 c -29.12216,2.2001 -334.4492,3.8346 -421.50135,2.2564 z m 403.55768,-41.8638 c -13.93274,-0.3057 -119.8532,-2.0327 -235.3788,-3.8377 -115.5256,-1.8049 -213.84637,-3.8572 -218.49062,-4.5608 -16.65595,-2.524 -30.17429,-12.7069 -38.41656,-28.9385 -4.31661,-8.5007 -23.85854,-62.8143 -23.85854,-66.311 0,-0.4359 4.69111,6.221 10.42464,14.7936 22.93392,34.2889 48.40465,53.605 77.18271,58.5321 6.96636,1.1927 119.06155,8.3531 249.10042,15.912 130.03886,7.5587 239.28418,14.0708 242.76736,14.4711 7.09092,0.8148 -24.83995,0.7842 -63.33061,-0.061 z m -999.39239,-107.0634 c 0.48385,-0.476 14.092329,-5.7238 30.241214,-11.6617 72.0689748,-26.4998 174.642628,-73.9516 237.682556,-109.9548 61.7824,-35.2853 119.60494,-77.3586 166.78625,-121.3585 74.50044,-69.47708 139.95706,-109.79139 229.51648,-141.35771 22.5362,-7.9432 72.03076,-21.13461 73.55977,-19.60541 0.52565,0.52556 -5.47007,2.6648 -13.32391,4.75385 -41.60336,11.06609 -92.8144,30.92102 -124.64416,48.3254 -53.87007,29.45595 -81.39313,49.56627 -148.66692,108.62667 -43.04814,37.7922 -73.67314,61.5438 -111.01203,86.0965 -77.93043,51.2437 -190.263327,104.4953 -309.371337,146.6576 -28.124283,9.9556 -32.679023,11.3588 -30.767913,9.4781 z m 2229.06187,-7.8089 c -15.6743,-0.9508 -55.6292,-2.5226 -88.7887,-3.4931 -68.0325,-1.9909 -69.7122,-2.3759 -88.1174,-20.2027 -9.3805,-9.0858 -36.4571,-50.6849 -51.1538,-78.5905 -10.1204,-19.2164 -11.4155,-32.6619 -3.6246,-37.6332 5.2072,-3.3227 49.1355,-6.5657 118.7449,-8.766 37.6581,-1.1904 41.722,-0.9347 66.4971,4.1853 51.8634,10.7183 75.0371,18.9815 88.3152,31.4908 8.8598,8.3467 11.7481,13.9055 20.612,39.6686 15.1759,44.1095 18.2861,64.2195 11.2446,72.7039 -2.803,3.3777 -25.3403,3.5723 -73.7293,0.6369 z m 100.6022,-18.3211 c -10.6151,-14.4605 -35.2323,-65.5409 -36.6385,-76.0235 -1.0124,-7.5482 -0.6289,-8.8651 2.5824,-8.8651 5.5201,0 18.6726,14.7869 29.2995,32.9408 22.7072,38.7909 26.6417,81.7615 4.7566,51.9478 z m -324.5106,-24.2033 c -38.3528,-47.5651 -92.5553,-92.2761 -140.2427,-115.6841 -20.3662,-9.9972 -32.2485,-13.1791 -74.9412,-20.0688 -17.9964,-2.9044 -42.2204,-7.0851 -53.831,-9.2904 -86.8926,-16.5056 -226.4661,-32.9133 -324.0417,-38.0937 -24.9628,-1.3253 -46.3027,-2.6449 -47.4219,-2.9324 -1.1193,-0.2876 39.729,-1.88 90.7739,-3.5388 113.2718,-3.6809 254.622,-3.7617 296.5223,-0.1695 205.1672,17.5893 342.2946,38.2164 428.8448,64.5079 21.9369,6.6636 64.1296,24.0721 62.4398,25.762 -0.3595,0.3595 -6.7874,-1.2691 -14.2845,-3.6191 -20.6477,-6.472 -44.9801,-11.8785 -69.5731,-15.4586 -18.7368,-2.7276 -31.6364,-2.9043 -83.3853,-1.1421 -90.2062,3.072 -112.9396,6.9449 -112.9396,19.2412 0,3.4377 17.4138,38.5246 48.9491,98.6266 5.7056,10.8743 10.0252,20.1204 9.5988,20.5466 -0.4264,0.4264 -7.8368,-7.9826 -16.4677,-18.6868 z m -141.2982,6.4146 c -29.4869,-10.3681 -50.2133,-27.783 -63.8619,-53.6586 -13.4025,-25.4093 -12.351,-43.944 3.043,-53.6355 10.7538,-6.7701 34.1523,-4.977 52.1511,3.9968 56.1597,27.9999 84.8738,82.6954 54.0248,102.9082 -8.8217,5.7804 -29.5188,5.9577 -45.357,0.3891 z m 66.3032,-24.0954 c 0.063,-19.002 -6.625,-32.0937 -27.0283,-52.8976 -8.3279,-8.4915 -14.8056,-15.4391 -14.3948,-15.4391 2.1307,0 21.7897,14.7423 30.5492,22.9088 21.9686,20.4809 27.0812,39.858 14.588,55.2863 -3.6951,4.5636 -3.7623,4.3857 -3.7141,-9.8584 z m -238.375,6.9429 c -23.8748,-8.8789 -41.2327,-24.1982 -52.3778,-46.2265 -3.1085,-6.1435 -5.6516,-13.816 -5.6516,-17.0499 0,-15.9168 18.0788,-31.0024 37.154,-31.0024 14.6808,0 37.5932,8.0185 56.2897,19.6992 18.9962,11.8684 27.9085,20.5166 34.4542,33.4337 9.6849,19.1121 5.2119,33.9551 -12.6814,42.0819 -12.6517,5.7462 -40.4423,5.2913 -57.1871,-0.936 z m 74.3077,-1.5516 c 22.8696,-24.5666 11.1502,-52.4386 -33.6385,-80.0018 -9.4862,-5.838 -16.407,-10.6144 -15.3792,-10.6144 5.9861,0 37.8781,18.1565 47.0747,26.8003 24.9677,23.4665 26.1047,52.6077 2.6002,66.6367 l -7.3886,4.4099 z M 363.36807,1109.8343 c 0,-3.352 20.11423,-28.1403 32.73666,-40.3441 18.46024,-17.8481 41.39985,-34.5478 66.87987,-48.6877 32.82995,-18.2185 50.79558,-25.71795 57.54958,-24.0228 12.7056,3.18889 45.02659,42.3865 64.65824,78.4149 10.53336,19.3313 9.78057,19.9616 -23.84989,19.9673 -72.92985,0.013 -159.3679,6.1985 -186.8916,13.3751 -6.09557,1.5895 -11.08286,2.1731 -11.08286,1.2973 z m 252.69275,-32.1702 c -12.6237,-24.9928 -32.7451,-53.8284 -50.55557,-72.4501 -9.62119,-10.05947 -16.36738,-18.91195 -16.36738,-21.47783 0,-3.58266 3.87837,-5.87001 21.63797,-12.76165 54.73728,-21.24083 101.75921,-32.95725 154.56618,-38.51316 54.54412,-5.73866 104.01673,6.45679 149.77627,36.92122 23.30525,15.51547 34.67731,25.90974 57.04907,52.14432 17.23479,20.2106 41.09375,55.5267 38.95656,57.6637 -0.70741,0.7075 -180.92227,8.2555 -311.15747,13.0324 l -35.88735,1.3163 z m 466.39068,-25.1755 c -33.4383,-3.0341 -50.2294,-11.141 -78.9034,-38.0956 -41.46758,-38.98107 -62.82119,-57.36966 -100.59157,-86.62425 -8.68495,-6.72689 -9.58002,-10.84621 -3.10911,-14.30938 7.08986,-3.79429 94.12365,-6.09712 150.65788,-3.98627 75.0495,2.80219 168.0022,11.56696 224.8236,21.19925 26.7365,4.53234 86.9726,23.92905 166.7707,53.70206 57.1244,21.31339 169.8354,68.31229 168.0663,70.08129 -0.3656,0.3655 -11.4936,-0.2642 -24.7291,-1.3994 -80.6336,-6.9158 -258.2192,-7.9306 -402.9928,-2.3029 -30.7681,1.196 -62.1167,2.4148 -69.6636,2.7084 -7.5469,0.2935 -21.1949,-0.1444 -30.3289,-0.9732 z M 635.16196,905.87821 c 1.45133,-0.58562 3.82623,-0.58562 5.27755,0 1.45133,0.58561 0.26388,1.06477 -2.63877,1.06477 -2.90266,0 -4.0901,-0.47916 -2.63878,-1.06477 z m 10.55511,-2.11103 c 1.45132,-0.58561 3.82622,-0.58561 5.27755,0 1.45132,0.58562 0.26387,1.06478 -2.63878,1.06478 -2.90265,0 -4.0901,-0.47916 -2.63877,-1.06478 z m 10.68704,-2.15499 c 1.52394,-0.60981 3.3447,-0.53483 4.04619,0.16656 0.70149,0.70147 -0.54549,1.20041 -2.77071,1.10875 -2.45934,-0.10133 -2.95944,-0.60151 -1.27548,-1.27539 z"
         style="fill:#333333;fill-opacity:1;stroke-width:2.11102"
         id="path1450" />
    </g>
  </g>
</svg>
