<svg xmlns="http://www.w3.org/2000/svg" version="1.1" xmlns:xlink="http://www.w3.org/1999/xlink" xmlns:svgjs="http://svgjs.com/svgjs" width="512" height="512" x="0" y="0" viewBox="0 0 64 64" style="enable-background:new 0 0 512 512" xml:space="preserve" class=""><g><path d="M50.942 30.79a1 1 0 0 0-1 1v16.541a3.003 3.003 0 0 1-3 3H9a3.003 3.003 0 0 1-3-3v-19.88h35.692a1 1 0 0 0 0-2H6V23.79a3.003 3.003 0 0 1 3-3h29.882a1 1 0 0 0 0-2H9a5.006 5.006 0 0 0-5 5v24.541a5.006 5.006 0 0 0 5 5h37.942a5.006 5.006 0 0 0 5-5V31.79a1 1 0 0 0-1-1z" fill="#FFFFFF" data-original="#FFFFFF" class=""></path><path d="M50.94 10.669a9.07 9.07 0 0 0-9.06 9.06c.476 12.01 17.646 12.006 18.12 0a9.07 9.07 0 0 0-9.06-9.06zm0 2a7.065 7.065 0 0 1 6.98 6.06h-4.149a3.01 3.01 0 0 0-5.662 0h-4.15a7.065 7.065 0 0 1 6.98-6.06zm0 8.074a1.015 1.015 0 0 1 0-2.03 1.015 1.015 0 0 1 0 2.03zm-6.98-.014h4.149a3.01 3.01 0 0 0 1.83 1.83v4.15a7.064 7.064 0 0 1-5.98-5.98zm7.98 5.98v-4.15a3.01 3.01 0 0 0 1.831-1.83h4.15a7.064 7.064 0 0 1-5.981 5.98zM9.064 45.459a2.363 2.363 0 0 0 2.307 2.876h10.57a2.374 2.374 0 0 0 1.879-.916c1.679-2.518-1.645-6.218-3.847-7.164a5.06 5.06 0 0 0 1.774-3.83c-.213-6.725-9.968-6.729-10.183 0a5.06 5.06 0 0 0 1.774 3.83 7.79 7.79 0 0 0-4.274 5.204zm4.5-9.034a3.091 3.091 0 0 1 6.183 0 3.091 3.091 0 0 1-6.183 0zm3.092 5.092c2.625-.018 5.43 1.997 5.59 4.669a.39.39 0 0 1-.306.149H11.371a.392.392 0 0 1-.306-.15c.163-2.673 2.965-4.685 5.59-4.668zM44.052 33.334H27.969a1 1 0 0 0 0 2h16.083a1 1 0 0 0 0-2zM27.969 40.835h12.083a1 1 0 0 0 0-2H27.969a1 1 0 0 0 0 2zM27.969 46.335h16.083a1 1 0 0 0 0-2H27.969a1 1 0 0 0 0 2z" fill="#FFFFFF" data-original="#FFFFFF" class=""></path></g></svg>
