<svg xmlns="http://www.w3.org/2000/svg" version="1.1" xmlns:xlink="http://www.w3.org/1999/xlink" xmlns:svgjs="http://svgjs.com/svgjs" width="512" height="512" x="0" y="0" viewBox="0 0 512 512" style="enable-background:new 0 0 512 512" xml:space="preserve" class=""><g><path d="M460.8.036H51.2C22.935.065.028 22.971 0 51.236v375.467c.028 28.265 22.935 51.172 51.2 51.2h373.47l26.607 26.607a25.6 25.6 0 0 0 43.657-18.074 25.12 25.12 0 0 0-6.434-16.708 51.329 51.329 0 0 0 23.501-43.025V51.236C511.972 22.971 489.065.065 460.8.036zM51.2 17.103h409.6c18.851 0 34.133 15.282 34.133 34.133v17.067H17.067V51.236c0-18.851 15.282-34.133 34.133-34.133zM475.307 492.41a8.532 8.532 0 0 1-12.006 0l-70.767-70.741 12.032-12.032 70.827 70.827a8.293 8.293 0 0 1 0 11.946zM256 426.703c-84.831 0-153.6-68.769-153.6-153.6s68.769-153.6 153.6-153.6 153.6 68.769 153.6 153.6c-.099 84.79-68.81 153.501-153.6 153.6zm138.487-54.246 5.581 5.581a8.396 8.396 0 0 1 1.502 9.907 9.033 9.033 0 0 1-1.502 2.091l-27.136 27.136a6.861 6.861 0 0 1-2.159 1.493 8.38 8.38 0 0 1-9.839-1.493l-5.581-5.581a171.673 171.673 0 0 0 39.134-39.134zm81.673 84.684L416 396.973c.196-.341.435-.649.623-.998a25.36 25.36 0 0 0-4.489-30.003l-8.175-8.175c42.711-74.429 23.71-168.98-44.438-221.131s-164.38-45.779-225.059 14.899-67.05 156.91-14.899 225.059 146.702 87.15 221.131 44.438l8.175 8.175a25.603 25.603 0 0 0 18.065 7.561 23.997 23.997 0 0 0 11.315-2.807c.555-.247 1.058-.614 1.587-.905l27.767 27.75H51.2c-18.851 0-34.133-15.282-34.133-34.133V85.37h477.867v341.333a34.263 34.263 0 0 1-18.774 30.438z" fill="#FFFFFF" data-original="#FFFFFF" class=""></path><g fill-rule="evenodd" clip-rule="evenodd"><circle cx="51.2" cy="42.703" r="8.533" fill="#FFFFFF" data-original="#FFFFFF" class=""></circle><circle cx="85.333" cy="42.703" r="8.533" fill="#FFFFFF" data-original="#FFFFFF" class=""></circle><circle cx="119.467" cy="42.703" r="8.533" fill="#FFFFFF" data-original="#FFFFFF" class=""></circle></g><path d="M341.333 232.749V187.77c0-9.426-7.641-17.067-17.067-17.067H307.2c-9.035.036-16.476 7.107-16.973 16.128l-22.443-20.164c-6.697-6.035-16.872-6.035-23.569 0l-84.847 76.237a17.135 17.135 0 0 0-4.617 19.004 17.364 17.364 0 0 0 15.915 11.127v85.402c0 9.426 7.641 17.067 17.067 17.067h136.533c9.426 0 17.067-7.641 17.067-17.067v-85.402a17.368 17.368 0 0 0 15.915-11.093 17.135 17.135 0 0 0-4.617-19.004zM307.2 187.77h17.067v29.645l-17.067-15.36zm-50.816-8.397 84.463 76.663H256l-85.231-.435zm-8.917 179.063v-25.6a8.533 8.533 0 0 1 17.066 0v25.6zm34.133 0v-25.6c0-14.138-11.461-25.6-25.6-25.6-14.138 0-25.6 11.462-25.6 25.6v25.6h-42.667v-85.333h136.533v85.333z" fill="#FFFFFF" data-original="#FFFFFF" class=""></path></g></svg>
