<?xml version="1.0" encoding="UTF-8" standalone="no"?>
<svg
   version="1.1"
   width="512"
   height="512"
   x="0"
   y="0"
   viewBox="0 0 68 68"
   style="enable-background:new 0 0 512 512"
   xml:space="preserve"
   class=""
   id="svg8"
   sodipodi:docname="relatorio-credito.svg"
   inkscape:version="1.1.2 (b8e25be833, 2022-02-05)"
   xmlns:inkscape="http://www.inkscape.org/namespaces/inkscape"
   xmlns:sodipodi="http://sodipodi.sourceforge.net/DTD/sodipodi-0.dtd"
   xmlns="http://www.w3.org/2000/svg"
   xmlns:svg="http://www.w3.org/2000/svg"><defs
     id="defs12" /><sodipodi:namedview
     id="namedview10"
     pagecolor="#ffffff"
     bordercolor="#666666"
     borderopacity="1.0"
     inkscape:pageshadow="2"
     inkscape:pageopacity="0.0"
     inkscape:pagecheckerboard="0"
     showgrid="false"
     inkscape:zoom="1.7050781"
     inkscape:cx="255.70676"
     inkscape:cy="256"
     inkscape:window-width="3840"
     inkscape:window-height="2081"
     inkscape:window-x="-9"
     inkscape:window-y="-9"
     inkscape:window-maximized="1"
     inkscape:current-layer="g6" /><g
     id="g6"><path
       d="M10.36 10.625h10.69c.55 0 1-.44 1-1 0-.55-.45-1-1-1H10.36c-.55 0-1 .45-1 1 0 .56.45 1 1 1zM10.36 16.995h10.69c.55 0 1-.44 1-1 0-.55-.45-1-1-1H10.36c-.55 0-1 .45-1 1 0 .56.45 1 1 1zM10.36 23.365h5.35c.55 0 1-.44 1-1 0-.55-.45-1-1-1h-5.35c-.55 0-1 .45-1 1 0 .56.45 1 1 1zM34.46 23.115h3.6c.41 0 .75-.33.75-.75v-9.43c0-.41-.34-.74-.75-.74h-3.6c-.41 0-.74.33-.74.74v9.43c0 .42.33.75.74.75zM30.69 16.495h-3.6a.75.75 0 0 0-.75.75v5.12c0 .42.33.75.75.75h3.6c.4 0 .74-.33.74-.75v-5.12c0-.41-.34-.75-.74-.75zM41.84 23.115h3.6c.41 0 .74-.33.74-.75V9.625c0-.4-.33-.74-.74-.74h-3.6c-.41 0-.75.34-.75.74v12.74c0 .42.34.75.75.75zM45.44 27.955H33.49c-.55 0-1 .45-1 1s.45 1 1 1h11.95c.55 0 1-.45 1-1s-.45-1-1-1zM45.44 32.875H33.49c-.55 0-1 .44-1 1 0 .55.45 1 1 1h11.95c.55 0 1-.45 1-1 0-.56-.45-1-1-1zM40.41 37.795h-6.92c-.55 0-1 .44-1 1 0 .55.45 1 1 1h6.92c.55 0 1-.45 1-1 0-.56-.45-1-1-1zM17.12 26.125c-4.27 0-7.74 3.48-7.74 7.75 0 4.253 3.446 7.74 7.74 7.74 4.164 0 7.646-3.378 7.74-7.6v-.14c0-4.352-3.54-7.75-7.74-7.75zm5.76 7.86a5.854 5.854 0 0 1-.87 2.91l-3.9-3.47v-5.23c2.76.5 4.77 2.86 4.77 5.68v.11z"
       fill="#3a5700"
       data-original="#FFF"
       class=""
       id="path2"
       style="fill:#FFF" /><path
       d="M53.83 38.415V9.445c0-3.71-3.03-6.74-6.75-6.74H9.24c-3.72 0-6.74 3.03-6.74 6.74v49.11c0 3.72 3.02 6.74 6.74 6.74h37.84c.83 0 1.63-.15 2.36-.43.86.17 1.75.26 2.66.26 7.38 0 13.4-6.01 13.4-13.41 0-6.8-5.1-12.45-11.67-13.3zM38.8 49.905l-4.36 4.55c-.13-.02-.28-.04-.42-.04-.2 0-.39.03-.57.09l-9.1-8.72a1.972 1.972 0 0 0-1.96-2.26 1.978 1.978 0 0 0-1.97 2.18l-7.98 8.48a1.978 1.978 0 0 0-2.42 1.93c0 1.09.89 1.97 1.98 1.97s1.98-.88 1.98-1.97c0-.19-.03-.38-.08-.55l7.74-8.23c.467.203 1.043.19 1.44.02l9.01 8.62c-.28 1.206.65 2.4 1.93 2.4a1.978 1.978 0 0 0 1.89-2.56v-.01l2.82-2.94c.38 4.45 2.94 8.28 6.6 10.43H9.24c-2.61 0-4.74-2.12-4.74-4.74V9.445a4.75 4.75 0 0 1 4.74-4.74h37.84c2.62 0 4.75 2.13 4.75 4.74v28.87c-6.67.13-12.15 5.14-13.03 11.59zm6.32 1.82c0 .82-.66 1.48-1.49 1.48-.82 0-1.48-.66-1.48-1.48a1.485 1.485 0 1 1 2.97 0zm6.71-.88c.388.044 1.116-.027 2 .43 1.31.64 2.21 1.99 2.21 3.54a3.976 3.976 0 0 1-3.1 3.87v.73c0 .477-.393.85-.85.85a.852.852 0 0 1-.85-.85v-.73a3.969 3.969 0 0 1-3.1-3.87.85.85 0 1 1 1.7 0c0 3.07 4.5 2.956 4.5 0 0-.54-.19-1.04-.51-1.43-.743-.88-1.586-.78-2-.83a3.95 3.95 0 0 1-3.69-3.94c0-1.89 1.33-3.48 3.1-3.87v-.73c0-.482.4-.85.85-.85.506 0 .85.427.85.85v.73a3.976 3.976 0 0 1 3.1 3.87.85.85 0 1 1-1.7 0 2.247 2.247 0 0 0-2.51-2.24 2.26 2.26 0 0 0-1.99 2.24c0 1.15.87 2.11 1.99 2.23zm10.2.88c0 .82-.66 1.48-1.49 1.48-.82 0-1.48-.66-1.48-1.48a1.485 1.485 0 1 1 2.97 0z"
       fill="#3a5700"
       data-original="#FFF"
       class=""
       id="path4"
       style="fill:#FFF" /></g></svg>
