<svg xmlns:xlink="http://www.w3.org/1999/xlink" width="80" xmlns="http://www.w3.org/2000/svg" height="76" id="screenshot-ea368cf4-7640-80b9-8001-e69845a9dc91" viewBox="-0 -0 80 76" style="-webkit-print-color-adjust: exact;" fill="none" version="1.1"><g xmlns:xlink="http://www.w3.org/1999/xlink" width="512" xml:space="preserve" height="512" class="" x="0" id="shape-ea368cf4-7640-80b9-8001-e69845a9dc91" style="fill: rgb(0, 0, 0);" ry="0" rx="0" y="0" version="1.1"><g id="shape-ea368cf4-7640-80b9-8001-e69845a9dc9b" rx="0" ry="0" style="fill: rgb(0, 0, 0);"><g id="shape-ea368cf4-7640-80b9-8001-e69845a9dc9c"><g id="fills-ea368cf4-7640-80b9-8001-e69845a9dc9c"><path class="" rx="0" ry="0" d="M57.863,21.187L69.642,22.048L70.5,10.231L66.463,9.936L66.126,14.585C59.66,7.567,50.554,3.5,40.888,3.5C21.926,3.5,6.5,18.977,6.5,38C6.5,57.023,21.927,72.5,40.888,72.5C52.354,72.5,63.032,66.778,69.45,57.193L66.091,54.929C60.425,63.389,51.004,68.44,40.888,68.44C24.158,68.44,10.547,54.784,10.547,38C10.547,21.216,24.158,7.56,40.888,7.56C49.492,7.56,57.592,11.216,63.308,17.514L58.157,17.138L57.863,21.187ZZ" style="fill: rgb(58, 114, 197); fill-opacity: 1;"/></g></g><g id="shape-ea368cf4-7640-80b9-8001-e69845a9dc9d" rx="0" ry="0" style="fill: rgb(0, 0, 0);"><g id="shape-ea368cf4-7640-80b9-8001-e69845a9dcae"><g id="fills-ea368cf4-7640-80b9-8001-e69845a9dcae"><path class="" rx="0" ry="0" d="M18.5,45.5C18.5,41.12,19.293,39.084,22.553,37.545C24.477,36.645,26.357,35.792,26.357,33.804C26.357,32.525,25.587,31.862,24.41,31.862C22.961,31.862,21.602,32.857,20.787,33.733L18.545,31.223C19.542,30.039,21.828,28.5,24.908,28.5C28.485,28.5,30.477,30.512,30.477,33.756C30.477,36.503,29.006,37.781,26.9,38.894C25.066,39.865,23.776,40.741,23.776,42.091L30.5,42.091L30.5,45.5L18.5,45.5ZL18.5,45.5ZZ" style="fill: rgb(58, 114, 197); fill-opacity: 1;"/></g></g><g id="shape-ea368cf4-7640-80b9-8001-e69845a9dcaf"><g id="fills-ea368cf4-7640-80b9-8001-e69845a9dcaf"><path class="" rx="0" ry="0" d="M38.864,45.5L38.864,42.142L32.5,42.142L32.5,38.92L40,29.5L42.5,29.5L42.5,38.92L44.5,38.92L44.5,42.142L42.5,42.142L42.5,45.5L38.864,45.5ZZM36.114,38.92L39.273,38.92L39.273,34.908L36.114,38.92ZZ" style="fill: rgb(58, 114, 197); fill-opacity: 1;"/></g></g><g id="shape-ea368cf4-7640-80b9-8001-e69845a9dcb0"><g id="fills-ea368cf4-7640-80b9-8001-e69845a9dcb0"><path class="" rx="0" ry="0" d="M58.5,45.5L54.713,45.5L54.713,38.63C54.713,37.047,54.003,36.325,52.914,36.325C52.015,36.325,50.76,37.186,50.287,38.49L50.287,45.5L46.5,45.5L46.5,28.5L50.287,28.5L50.287,35.323C51.187,33.879,52.772,33.041,54.595,33.041C57.932,33.041,58.5,35.556,58.5,37.675L58.5,45.5ZL58.5,45.5ZZ" style="fill: rgb(58, 114, 197); fill-opacity: 1;"/></g></g></g><g id="shape-ea368cf4-7640-80b9-8001-e69845a9dc9f" rx="0" ry="0" style="fill: rgb(0, 0, 0);"/><g id="shape-ea368cf4-7640-80b9-8001-e69845a9dca0" rx="0" ry="0" style="fill: rgb(0, 0, 0);"/><g id="shape-ea368cf4-7640-80b9-8001-e69845a9dca1" rx="0" ry="0" style="fill: rgb(0, 0, 0);"/><g id="shape-ea368cf4-7640-80b9-8001-e69845a9dca2" rx="0" ry="0" style="fill: rgb(0, 0, 0);"/><g id="shape-ea368cf4-7640-80b9-8001-e69845a9dca3" rx="0" ry="0" style="fill: rgb(0, 0, 0);"/><g id="shape-ea368cf4-7640-80b9-8001-e69845a9dca4" rx="0" ry="0" style="fill: rgb(0, 0, 0);"/><g id="shape-ea368cf4-7640-80b9-8001-e69845a9dca5" rx="0" ry="0" style="fill: rgb(0, 0, 0);"/><g id="shape-ea368cf4-7640-80b9-8001-e69845a9dca6" rx="0" ry="0" style="fill: rgb(0, 0, 0);"/><g id="shape-ea368cf4-7640-80b9-8001-e69845a9dca7" rx="0" ry="0" style="fill: rgb(0, 0, 0);"/><g id="shape-ea368cf4-7640-80b9-8001-e69845a9dca8" rx="0" ry="0" style="fill: rgb(0, 0, 0);"/><g id="shape-ea368cf4-7640-80b9-8001-e69845a9dca9" rx="0" ry="0" style="fill: rgb(0, 0, 0);"/><g id="shape-ea368cf4-7640-80b9-8001-e69845a9dcaa" rx="0" ry="0" style="fill: rgb(0, 0, 0);"/><g id="shape-ea368cf4-7640-80b9-8001-e69845a9dcab" rx="0" ry="0" style="fill: rgb(0, 0, 0);"/><g id="shape-ea368cf4-7640-80b9-8001-e69845a9dcac" rx="0" ry="0" style="fill: rgb(0, 0, 0);"/><g id="shape-ea368cf4-7640-80b9-8001-e69845a9dcad" rx="0" ry="0" style="fill: rgb(0, 0, 0);"/></g></g></svg>